<svg xmlns="http://www.w3.org/2000/svg" xmlns:xlink="http://www.w3.org/1999/xlink" width="500" zoomAndPan="magnify" viewBox="0 0 375 374.999991" height="500" preserveAspectRatio="xMidYMid meet" version="1.0"><defs><filter x="0%" y="0%" width="100%" height="100%" id="6e47d4f5e7"><feColorMatrix values="0 0 0 0 1 0 0 0 0 1 0 0 0 0 1 0 0 0 1 0" color-interpolation-filters="sRGB"/></filter><g/><clipPath id="409797b0fe"><path d="M 8.65625 9.710938 L 366.40625 9.710938 L 366.40625 365.210938 L 8.65625 365.210938 Z M 8.65625 9.710938 " clip-rule="nonzero"/></clipPath><clipPath id="865df62094"><path d="M 22.824219 23.792969 L 352.074219 23.792969 L 352.074219 351.542969 L 22.824219 351.542969 Z M 22.824219 23.792969 " clip-rule="nonzero"/></clipPath><mask id="bb2d7b90b6"><g filter="url(#6e47d4f5e7)"><rect x="-37.5" width="450" fill="#000000" y="-37.499999" height="449.999989" fill-opacity="0.149"/></g></mask><clipPath id="b47b06e790"><path d="M 51 286 L 241.496094 286 L 241.496094 323.589844 L 51 323.589844 Z M 51 286 " clip-rule="nonzero"/></clipPath><clipPath id="7ca9d992f8"><path d="M 228 178 L 241.496094 178 L 241.496094 247 L 228 247 Z M 228 178 " clip-rule="nonzero"/></clipPath><clipPath id="06fec51abd"><path d="M 194 215 L 241.496094 215 L 241.496094 289 L 194 289 Z M 194 215 " clip-rule="nonzero"/></clipPath><clipPath id="90ebe63a2a"><path d="M 0.0390625 145 L 241.496094 145 L 241.496094 323.589844 L 0.0390625 323.589844 Z M 0.0390625 145 " clip-rule="nonzero"/></clipPath><clipPath id="c7c92da074"><rect x="0" width="262" y="0" height="350"/></clipPath></defs><g clip-path="url(#409797b0fe)"><path fill="#ffffff" d="M 341.210938 365.210938 L 33.855469 365.210938 C 19.972656 365.210938 8.660156 353.902344 8.660156 340.023438 L 8.660156 34.894531 C 8.660156 21.019531 19.972656 9.710938 33.855469 9.710938 L 341.210938 9.710938 C 355.09375 9.710938 366.40625 21.019531 366.40625 34.894531 L 366.40625 340.023438 C 366.40625 353.902344 355.09375 365.210938 341.210938 365.210938 " fill-opacity="1" fill-rule="nonzero"/></g><g clip-path="url(#865df62094)"><path fill="#c6dadb" d="M 328.882812 351.539062 L 46.011719 351.539062 C 33.234375 351.539062 22.824219 341.117188 22.824219 328.320312 L 22.824219 47.015625 C 22.824219 34.21875 33.234375 23.792969 46.011719 23.792969 L 328.882812 23.792969 C 341.664062 23.792969 352.074219 34.21875 352.074219 47.015625 L 352.074219 328.320312 C 352.074219 341.117188 341.664062 351.539062 328.882812 351.539062 " fill-opacity="1" fill-rule="nonzero"/></g><g mask="url(#bb2d7b90b6)"><g transform="matrix(1, 0, 0, 1, 113, 25)"><g clip-path="url(#c7c92da074)"><g clip-path="url(#b47b06e790)"><path fill="#678fbc" d="M 226.828125 294.675781 L 226.816406 294.675781 C 222.054688 294.675781 217.050781 294.527344 211.9375 294.246094 C 205.492188 293.882812 199.582031 291.035156 195.285156 286.226562 C 195.238281 286.171875 195.199219 286.109375 195.148438 286.054688 L 71.597656 359.402344 L 51.015625 465.359375 C 51.015625 465.359375 66.945312 478.777344 112.554688 485.890625 L 112.554688 625.914062 C 112.554688 641.597656 125.269531 654.3125 140.957031 654.3125 C 156.640625 654.3125 169.363281 641.597656 169.363281 625.914062 L 169.363281 490.175781 C 170.9375 490.191406 172.488281 490.214844 174.097656 490.214844 C 175.710938 490.214844 177.257812 490.191406 178.832031 490.175781 L 178.832031 625.910156 C 178.832031 641.597656 191.546875 654.3125 207.234375 654.3125 C 222.914062 654.3125 235.640625 641.597656 235.640625 625.910156 L 235.640625 485.890625 C 281.253906 478.773438 297.183594 465.359375 297.183594 465.359375 L 263.355469 291.265625 C 252.558594 293.523438 240.4375 294.65625 226.828125 294.675781 Z M 226.828125 294.675781 " fill-opacity="1" fill-rule="nonzero"/></g><g clip-path="url(#7ca9d992f8)"><path fill="#678fbc" d="M 255.738281 243.472656 L 349.425781 187.847656 L 343.625 178.082031 L 228.609375 246.371094 C 240.523438 246.277344 249.390625 244.992188 255.738281 243.472656 Z M 255.738281 243.472656 " fill-opacity="1" fill-rule="nonzero"/></g><g clip-path="url(#06fec51abd)"><path fill="#678fbc" d="M 212.25 288.570312 C 217.285156 288.855469 222.136719 288.992188 226.816406 288.992188 C 251.433594 288.949219 270.957031 285.214844 286.371094 277.527344 C 286.625 277.410156 286.886719 277.308594 287.136719 277.179688 C 296.226562 272.484375 303.878906 266.171875 309.230469 258.261719 C 314.609375 250.390625 317.367188 241.003906 317.324219 231.851562 C 317.3125 226.101562 316.285156 220.535156 314.523438 215.175781 L 279.546875 235.949219 C 279.308594 236.46875 279.023438 237 278.65625 237.570312 C 277.359375 239.484375 274.90625 241.929688 270.195312 244.371094 C 262.273438 248.53125 247.898438 252.121094 226.820312 252.070312 C 222.886719 252.070312 218.722656 251.953125 214.324219 251.703125 C 204.140625 251.132812 195.429688 258.925781 194.855469 269.105469 C 194.277344 279.285156 202.070312 288 212.25 288.570312 Z M 212.25 288.570312 " fill-opacity="1" fill-rule="nonzero"/></g><g clip-path="url(#90ebe63a2a)"><path fill="#678fbc" d="M 45.53125 372.378906 C 45.730469 370.855469 45.949219 369.402344 46.15625 367.90625 L 191.929688 281.355469 C 190.0625 277.816406 189.109375 273.867188 189.171875 269.785156 L 48.320312 353.410156 C 48.714844 350.9375 49.117188 348.488281 49.535156 346.082031 C 51.144531 336.75 52.882812 327.933594 54.730469 319.640625 C 57.027344 309.332031 59.480469 299.777344 62.0625 290.980469 C 62.070312 290.960938 62.082031 290.941406 62.085938 290.921875 C 73.875 250.828125 88.042969 225.980469 100.523438 210.542969 L 77.402344 329.53125 L 190.421875 262.433594 C 193.648438 252.839844 202.691406 245.992188 213.265625 245.992188 C 213.71875 245.992188 214.175781 246 214.636719 246.03125 C 215.707031 246.09375 216.753906 246.125 217.808594 246.167969 L 250.785156 226.589844 L 244.511719 194.308594 C 248.304688 196.160156 251.832031 198.125 255.046875 200.167969 C 262.121094 204.648438 267.710938 209.496094 271.777344 214.125 L 303.792969 195.113281 C 292.558594 180.160156 275.6875 167.511719 254.300781 158.152344 C 241.832031 152.730469 227.761719 148.523438 212.398438 145.824219 C 212.40625 146.160156 212.4375 146.484375 212.4375 146.820312 C 212.4375 174.664062 195.269531 197.234375 174.09375 197.234375 C 152.914062 197.234375 135.75 174.664062 135.75 146.820312 C 135.75 146.792969 135.75 146.765625 135.75 146.738281 C 132.101562 147.492188 129.359375 148.152344 127.898438 148.515625 C 122.671875 149.40625 106.613281 153.585938 88.027344 170.175781 C 67.304688 188.605469 43.886719 221.769531 26.65625 280.511719 C 26.65625 280.515625 26.648438 280.523438 26.648438 280.527344 C 23.917969 289.832031 21.339844 299.804688 18.9375 310.453125 C 15.074219 327.613281 11.683594 346.566406 8.917969 367.550781 C 8.796875 368.46875 8.765625 369.382812 8.78125 370.277344 C 8.816406 372.351562 9.1875 374.363281 9.871094 376.238281 L 0.0664062 382.058594 L 5.863281 391.828125 L 16.917969 385.261719 C 18.84375 386.558594 21.027344 387.511719 23.414062 388.011719 C 23.871094 388.105469 24.332031 388.203125 24.808594 388.269531 C 25.621094 388.375 26.4375 388.429688 27.242188 388.429688 C 35.382812 388.429688 42.542969 383.03125 44.867188 375.273438 C 45.148438 374.335938 45.394531 373.382812 45.527344 372.378906 Z M 45.53125 372.378906 " fill-opacity="1" fill-rule="nonzero"/></g><path fill="#678fbc" d="M 187.949219 14.914062 C 189.898438 15.367188 191.820312 15.914062 193.710938 16.558594 C 195.605469 17.199219 197.464844 17.933594 199.285156 18.757812 C 201.105469 19.582031 202.882812 20.492188 204.617188 21.492188 C 206.347656 22.492188 208.027344 23.574219 209.652344 24.738281 C 211.277344 25.902344 212.84375 27.144531 214.347656 28.460938 C 215.851562 29.78125 217.285156 31.167969 218.652344 32.628906 C 220.019531 34.085938 221.3125 35.609375 222.53125 37.195312 C 223.75 38.78125 224.886719 40.421875 225.941406 42.121094 C 226.996094 43.816406 227.96875 45.5625 228.851562 47.355469 C 229.738281 49.148438 230.535156 50.980469 231.238281 52.851562 C 231.941406 54.722656 232.554688 56.625 233.074219 58.558594 C 233.589844 60.488281 234.011719 62.441406 234.339844 64.414062 C 234.664062 66.386719 234.894531 68.371094 235.023438 70.363281 C 235.15625 72.359375 235.191406 74.355469 235.125 76.355469 C 235.058594 78.355469 234.898438 80.34375 234.636719 82.328125 C 234.375 84.308594 234.019531 86.273438 233.566406 88.222656 C 233.113281 90.167969 232.566406 92.089844 231.921875 93.984375 C 231.28125 95.878906 230.546875 97.734375 229.722656 99.558594 C 228.898438 101.378906 227.984375 103.15625 226.984375 104.886719 C 225.984375 106.617188 224.90625 108.296875 223.738281 109.921875 C 222.574219 111.550781 221.335938 113.113281 220.015625 114.617188 C 218.699219 116.121094 217.308594 117.558594 215.851562 118.925781 C 214.390625 120.292969 212.871094 121.585938 211.285156 122.800781 C 209.699219 124.019531 208.054688 125.15625 206.359375 126.214844 C 204.660156 127.269531 202.914062 128.238281 201.121094 129.125 C 199.328125 130.011719 197.496094 130.804688 195.625 131.507812 C 193.753906 132.214844 191.851562 132.824219 189.921875 133.34375 C 187.988281 133.863281 186.039062 134.285156 184.066406 134.609375 C 182.09375 134.9375 180.109375 135.164062 178.113281 135.296875 C 176.117188 135.429688 174.121094 135.460938 172.121094 135.398438 C 170.125 135.332031 168.132812 135.167969 166.152344 134.910156 C 164.167969 134.648438 162.203125 134.292969 160.253906 133.839844 C 158.308594 133.382812 156.386719 132.835938 154.492188 132.195312 C 152.601562 131.550781 150.742188 130.820312 148.921875 129.996094 C 147.097656 129.167969 145.324219 128.257812 143.589844 127.257812 C 141.859375 126.257812 140.179688 125.175781 138.554688 124.011719 C 136.929688 122.847656 135.363281 121.609375 133.859375 120.289062 C 132.355469 118.972656 130.921875 117.582031 129.554688 116.125 C 128.1875 114.664062 126.894531 113.144531 125.675781 111.558594 C 124.457031 109.96875 123.320312 108.328125 122.265625 106.632812 C 121.207031 104.933594 120.238281 103.1875 119.351562 101.394531 C 118.46875 99.601562 117.671875 97.769531 116.96875 95.898438 C 116.261719 94.027344 115.652344 92.125 115.132812 90.195312 C 114.617188 88.261719 114.195312 86.3125 113.867188 84.339844 C 113.542969 82.367188 113.3125 80.382812 113.179688 78.386719 C 113.050781 76.390625 113.015625 74.394531 113.082031 72.394531 C 113.144531 70.398438 113.308594 68.40625 113.570312 66.425781 C 113.828125 64.441406 114.1875 62.476562 114.640625 60.53125 C 115.09375 58.582031 115.640625 56.660156 116.285156 54.769531 C 116.925781 52.875 117.660156 51.015625 118.484375 49.195312 C 119.308594 47.375 120.222656 45.597656 121.222656 43.863281 C 122.21875 42.132812 123.300781 40.453125 124.464844 38.828125 C 125.628906 37.203125 126.871094 35.636719 128.191406 34.132812 C 129.507812 32.628906 130.894531 31.195312 132.355469 29.828125 C 133.8125 28.460938 135.335938 27.167969 136.921875 25.949219 C 138.507812 24.730469 140.152344 23.59375 141.847656 22.539062 C 143.546875 21.480469 145.292969 20.511719 147.085938 19.625 C 148.878906 18.742188 150.710938 17.945312 152.582031 17.242188 C 154.453125 16.539062 156.355469 15.925781 158.285156 15.40625 C 160.214844 14.890625 162.167969 14.46875 164.140625 14.140625 C 166.113281 13.816406 168.097656 13.585938 170.09375 13.453125 C 172.089844 13.324219 174.085938 13.289062 176.085938 13.355469 C 178.082031 13.417969 180.074219 13.582031 182.054688 13.84375 C 184.039062 14.101562 186.003906 14.460938 187.949219 14.914062 Z M 187.949219 14.914062 " fill-opacity="1" fill-rule="nonzero"/></g></g></g><g fill="#728ebc" fill-opacity="1"><g transform="translate(52.110067, 204.461223)"><g><path d="M 0.453125 -37.78125 L 0.453125 -47.234375 L 33.65625 -47.234375 L 33.65625 -37.78125 L 22.4375 -37.78125 L 22.4375 0 L 11.671875 0 L 11.671875 -37.78125 Z M 0.453125 -37.78125 "/></g></g></g><g fill="#728ebc" fill-opacity="1"><g transform="translate(86.219098, 204.461223)"><g><path d="M 30.453125 -47.234375 L 30.453125 -37.78125 L 14.203125 -37.78125 L 14.203125 -28.390625 L 29.765625 -28.390625 L 29.765625 -18.953125 L 14.203125 -18.953125 L 14.203125 -9.453125 L 30.453125 -9.453125 L 30.453125 0 L 3.4375 0 L 3.4375 -47.234375 Z M 30.453125 -47.234375 "/></g></g></g><g fill="#728ebc" fill-opacity="1"><g transform="translate(119.412457, 204.461223)"><g><path d="M 27.421875 -47.234375 L 46.484375 0 L 34.921875 0 L 31.4375 -9.453125 L 13.453125 -9.453125 L 9.96875 0 L -1.609375 0 L 17.46875 -47.234375 Z M 27.765625 -18.890625 L 22.5 -32.625 L 22.390625 -32.625 L 17.125 -18.890625 Z M 27.765625 -18.890625 "/></g></g></g><g fill="#728ebc" fill-opacity="1"><g transform="translate(164.280701, 204.461223)"><g><path d="M 28.5625 -9.734375 C 30.207031 -9.734375 31.800781 -9.976562 33.34375 -10.46875 C 34.894531 -10.96875 36.03125 -11.445312 36.75 -11.90625 L 37.84375 -12.65625 L 42.421875 -3.5 C 42.265625 -3.382812 42.050781 -3.226562 41.78125 -3.03125 C 41.519531 -2.84375 40.898438 -2.488281 39.921875 -1.96875 C 38.953125 -1.457031 37.914062 -1.007812 36.8125 -0.625 C 35.707031 -0.25 34.253906 0.0859375 32.453125 0.390625 C 30.660156 0.703125 28.8125 0.859375 26.90625 0.859375 C 22.519531 0.859375 18.359375 -0.21875 14.421875 -2.375 C 10.492188 -4.53125 7.328125 -7.5 4.921875 -11.28125 C 2.515625 -15.0625 1.3125 -19.144531 1.3125 -23.53125 C 1.3125 -26.851562 2.015625 -30.039062 3.421875 -33.09375 C 4.835938 -36.144531 6.71875 -38.757812 9.0625 -40.9375 C 11.414062 -43.113281 14.15625 -44.847656 17.28125 -46.140625 C 20.414062 -47.441406 23.625 -48.09375 26.90625 -48.09375 C 29.957031 -48.09375 32.769531 -47.726562 35.34375 -47 C 37.925781 -46.28125 39.75 -45.554688 40.8125 -44.828125 L 42.421875 -43.734375 L 37.84375 -34.578125 C 37.570312 -34.804688 37.171875 -35.082031 36.640625 -35.40625 C 36.109375 -35.726562 35.039062 -36.15625 33.4375 -36.6875 C 31.832031 -37.226562 30.207031 -37.5 28.5625 -37.5 C 25.96875 -37.5 23.640625 -37.078125 21.578125 -36.234375 C 19.515625 -35.398438 17.882812 -34.296875 16.6875 -32.921875 C 15.488281 -31.546875 14.570312 -30.066406 13.9375 -28.484375 C 13.3125 -26.898438 13 -25.285156 13 -23.640625 C 13 -20.054688 14.34375 -16.84375 17.03125 -14 C 19.71875 -11.15625 23.5625 -9.734375 28.5625 -9.734375 Z M 28.5625 -9.734375 "/></g></g></g><g fill="#728ebc" fill-opacity="1"><g transform="translate(207.37482, 204.461223)"><g><path d="M 14.203125 -18.953125 L 14.203125 0 L 3.4375 0 L 3.4375 -47.234375 L 14.203125 -47.234375 L 14.203125 -28.390625 L 29.421875 -28.390625 L 29.421875 -47.234375 L 40.1875 -47.234375 L 40.1875 0 L 29.421875 0 L 29.421875 -18.953125 Z M 14.203125 -18.953125 "/></g></g></g><g fill="#728ebc" fill-opacity="1"><g transform="translate(250.984021, 204.461223)"><g><path d="M 30.453125 -47.234375 L 30.453125 -37.78125 L 14.203125 -37.78125 L 14.203125 -28.390625 L 29.765625 -28.390625 L 29.765625 -18.953125 L 14.203125 -18.953125 L 14.203125 -9.453125 L 30.453125 -9.453125 L 30.453125 0 L 3.4375 0 L 3.4375 -47.234375 Z M 30.453125 -47.234375 "/></g></g></g><g fill="#728ebc" fill-opacity="1"><g transform="translate(284.17738, 204.461223)"><g><path d="M 3.4375 -47.234375 L 20.328125 -47.234375 C 24.867188 -47.234375 28.566406 -46.019531 31.421875 -43.59375 C 34.285156 -41.164062 35.71875 -37.703125 35.71875 -33.203125 C 35.71875 -29.734375 34.847656 -26.820312 33.109375 -24.46875 C 31.378906 -22.125 29.023438 -20.472656 26.046875 -19.515625 L 42.3125 0 L 28.625 0 L 14.203125 -18.65625 L 14.203125 0 L 3.4375 0 Z M 14.203125 -26.28125 L 15.453125 -26.28125 C 16.453125 -26.28125 17.289062 -26.296875 17.96875 -26.328125 C 18.65625 -26.367188 19.4375 -26.503906 20.3125 -26.734375 C 21.195312 -26.960938 21.90625 -27.285156 22.4375 -27.703125 C 22.976562 -28.128906 23.4375 -28.742188 23.8125 -29.546875 C 24.195312 -30.347656 24.390625 -31.316406 24.390625 -32.453125 C 24.390625 -33.597656 24.195312 -34.570312 23.8125 -35.375 C 23.4375 -36.175781 22.976562 -36.785156 22.4375 -37.203125 C 21.90625 -37.628906 21.195312 -37.957031 20.3125 -38.1875 C 19.4375 -38.414062 18.65625 -38.546875 17.96875 -38.578125 C 17.289062 -38.617188 16.453125 -38.640625 15.453125 -38.640625 L 14.203125 -38.640625 Z M 14.203125 -26.28125 "/></g></g></g></svg>