<svg xmlns="http://www.w3.org/2000/svg" xmlns:xlink="http://www.w3.org/1999/xlink" width="500" zoomAndPan="magnify" viewBox="0 0 375 374.999991" height="500" preserveAspectRatio="xMidYMid meet" version="1.0"><defs><clipPath id="d718a68ba1"><path d="M 195 273 L 369.75 273 L 369.75 375 L 195 375 Z M 195 273 " clip-rule="nonzero"/></clipPath></defs><path fill="#678fbc" d="M 358.191406 345.824219 C 357.585938 347.183594 356.882812 348.496094 356.089844 349.753906 C 355.292969 351.015625 354.410156 352.214844 353.445312 353.347656 C 352.476562 354.480469 351.433594 355.539062 350.3125 356.519531 C 349.191406 357.503906 348.003906 358.398438 346.753906 359.210938 C 345.503906 360.023438 344.203125 360.742188 342.847656 361.363281 C 341.496094 361.988281 340.101562 362.511719 338.675781 362.933594 C 337.246094 363.355469 335.792969 363.675781 334.316406 363.890625 C 332.84375 364.101562 331.359375 364.207031 329.867188 364.207031 L 308.019531 364.207031 L 303.535156 361.316406 L 303.183594 376.414062 L 114.316406 376.414062 L 114.390625 338.359375 C 103.003906 348.542969 86.652344 358.292969 78.128906 360.769531 C 72.515625 362.390625 76.585938 351.386719 72.425781 350.015625 L 39.753906 346.601562 L 54.664062 313.953125 C 59.234375 303.90625 64.460938 292.824219 67.140625 282.15625 L 87.320312 201.804688 C 87.78125 199.902344 88.355469 198.035156 89.042969 196.199219 C 89.726562 194.367188 90.523438 192.582031 91.425781 190.84375 C 92.328125 189.105469 93.332031 187.429688 94.433594 185.8125 C 95.539062 184.195312 96.738281 182.652344 98.027344 181.179688 C 99.316406 179.707031 100.691406 178.316406 102.152344 177.007812 C 103.609375 175.703125 105.140625 174.488281 106.746094 173.367188 C 108.351562 172.242188 110.015625 171.222656 111.742188 170.300781 C 113.472656 169.378906 115.25 168.566406 117.074219 167.859375 L 178.140625 144.199219 L 269.144531 156.226562 C 271.289062 156.507812 273.402344 156.933594 275.484375 157.503906 C 277.570312 158.070312 279.609375 158.777344 281.597656 159.621094 C 283.589844 160.464844 285.511719 161.4375 287.371094 162.539062 C 289.230469 163.640625 291.007812 164.863281 292.699219 166.207031 C 294.394531 167.546875 295.988281 169 297.488281 170.554688 C 298.984375 172.113281 300.371094 173.765625 301.644531 175.507812 C 302.921875 177.253906 304.074219 179.074219 305.101562 180.972656 C 306.132812 182.875 307.027344 184.835938 307.792969 186.855469 L 358.878906 322.273438 C 359.589844 324.164062 360.113281 326.105469 360.445312 328.097656 C 360.777344 330.09375 360.914062 332.097656 360.855469 334.117188 C 360.796875 336.136719 360.542969 338.128906 360.09375 340.101562 C 359.648438 342.070312 359.011719 343.976562 358.191406 345.824219 Z M 358.191406 345.824219 " fill-opacity="1" fill-rule="nonzero"/><path fill="#f3f3f3" d="M 67.890625 279.253906 L 68.261719 277.675781 C 70.523438 277.9375 72.679688 278.5625 74.730469 279.554688 C 76.78125 280.546875 78.609375 281.847656 80.21875 283.457031 C 82.566406 285.878906 84.914062 289.515625 87.402344 293.378906 C 92.347656 301.058594 97.960938 309.769531 104.691406 310.171875 C 108.429688 310.417969 112.261719 308.097656 116.371094 303.144531 L 116.671875 303.390625 C 116.613281 303.488281 116.535156 303.578125 116.484375 303.671875 L 117.5625 304.285156 C 113.332031 309.359375 109.273438 311.839844 105.199219 311.839844 C 105 311.839844 104.796875 311.839844 104.59375 311.839844 C 97.027344 311.382812 91.144531 302.300781 86.011719 294.289062 C 83.574219 290.503906 81.273438 286.925781 79.039062 284.632812 C 77.542969 283.121094 75.839844 281.90625 73.925781 280.984375 C 72.015625 280.058594 70 279.484375 67.890625 279.253906 Z M 333.277344 254.351562 L 332.460938 252.277344 C 331.875 253.320312 331.390625 254.40625 331.003906 255.539062 C 329.34375 260.433594 329.644531 265.65625 329.933594 270.714844 C 330.019531 272.15625 330.101562 273.597656 330.136719 275.03125 C 330.457031 287.410156 325.210938 293.707031 313.636719 294.769531 C 307.660156 295.328125 301.539062 294.425781 295.652344 293.542969 L 295.410156 295.179688 C 300.15625 296.003906 304.9375 296.472656 309.75 296.589844 C 311.097656 296.589844 312.441406 296.539062 313.792969 296.410156 C 326.242188 295.246094 332.132812 288.238281 331.789062 274.988281 C 331.789062 273.535156 331.667969 272.082031 331.585938 270.617188 C 331.304688 265.722656 331.019531 260.664062 332.574219 256.070312 C 332.765625 255.484375 332.992188 254.910156 333.253906 254.351562 Z M 117.546875 304.261719 L 117.90625 304.464844 C 123.589844 294.441406 139.800781 293.339844 148.917969 296.996094 C 151.539062 298.039062 154.191406 299.316406 156.753906 300.550781 C 163.203125 303.660156 169.863281 306.871094 177.019531 306.871094 C 177.53125 306.871094 178.03125 306.871094 178.515625 306.820312 C 187.835938 306.222656 195.3125 300.15625 202.546875 294.28125 C 209.125 288.949219 215.925781 283.429688 224.03125 282.136719 C 232.140625 280.84375 240.414062 283.980469 248.042969 287.582031 L 250.8125 288.902344 C 257.59375 292.152344 264.601562 295.523438 272.203125 296.15625 L 272.34375 294.507812 C 265.042969 293.902344 258.144531 290.601562 251.53125 287.410156 L 248.746094 286.085938 C 240.875 282.351562 232.394531 279.132812 223.769531 280.507812 C 215.148438 281.882812 208.25 287.53125 201.507812 293.003906 C 194.148438 298.980469 187.199219 304.601562 178.410156 305.167969 C 171.101562 305.660156 164.160156 302.300781 157.449219 299.0625 C 154.855469 297.816406 152.21875 296.523438 149.5 295.457031 C 136.011719 290.097656 121.492188 295.304688 116.617188 303.390625 C 116.558594 303.488281 116.484375 303.578125 116.433594 303.671875 Z M 117.546875 304.261719 " fill-opacity="1" fill-rule="nonzero"/><path fill="#231f20" d="M 45.554688 317.082031 C 51.171875 314.976562 78.140625 315.730469 85.457031 337.253906 C 89.359375 348.714844 82.753906 361.070312 71.664062 363.894531 C 30.683594 374.277344 0.402344 353.128906 45.554688 317.082031 Z M 45.554688 317.082031 " fill-opacity="1" fill-rule="nonzero"/><g clip-path="url(#d718a68ba1)"><path fill="#421714" d="M 369.324219 273.640625 L 336.070312 321.753906 L 259.527344 376.480469 L 195.097656 343.613281 L 267.492188 284.398438 L 288.097656 295.605469 L 296.554688 283.339844 Z M 369.324219 273.640625 " fill-opacity="1" fill-rule="nonzero"/></g><path fill="#9f584e" d="M 72.769531 322.082031 C 73.21875 322.359375 73.648438 322.660156 74.0625 322.988281 C 74.476562 323.316406 74.867188 323.667969 75.242188 324.039062 C 75.613281 324.410156 75.964844 324.804688 76.292969 325.21875 C 76.617188 325.632812 76.921875 326.0625 77.199219 326.511719 C 77.476562 326.960938 77.726562 327.421875 77.949219 327.898438 C 78.175781 328.375 78.371094 328.867188 78.539062 329.367188 C 78.707031 329.867188 78.84375 330.375 78.953125 330.890625 C 79.0625 331.40625 79.140625 331.925781 79.1875 332.449219 C 79.238281 332.976562 79.253906 333.5 79.242188 334.027344 C 79.230469 334.554688 79.1875 335.082031 79.113281 335.601562 C 79.042969 336.125 78.9375 336.640625 78.804688 337.152344 C 78.671875 337.660156 78.511719 338.164062 78.320312 338.652344 C 78.128906 339.144531 77.914062 339.625 77.667969 340.089844 C 77.421875 340.558594 77.148438 341.007812 76.851562 341.441406 C 76.550781 341.878906 76.230469 342.292969 75.882812 342.691406 C 75.539062 343.089844 75.167969 343.464844 74.78125 343.820312 C 74.78125 343.820312 70.191406 348.019531 62.75 361.003906 C 60.042969 365.710938 52.285156 365.828125 53.578125 360.257812 C 55.875 350.460938 55.289062 342.804688 50.703125 343.566406 C 46.113281 344.328125 33.320312 362.160156 27.96875 363.3125 C 22.621094 364.460938 24.152344 356.820312 24.152344 356.820312 C 24.152344 356.820312 20.714844 363.691406 16.125 364.453125 C 11.539062 365.214844 7.078125 359.539062 23 335.804688 C 40.390625 309.882812 59.609375 313.96875 72.769531 322.082031 Z M 290.160156 372.640625 C 307.21875 382.699219 329.488281 371.328125 331.027344 351.582031 C 331.25 348.691406 330.914062 345.972656 329.621094 343.851562 C 324.457031 335.355469 309.863281 330.71875 305.433594 331.464844 C 301 332.210938 298.96875 336.632812 308.757812 344.574219 C 308.757812 344.574219 292.316406 331.128906 286.789062 332.203125 C 283.015625 332.949219 285.863281 339.40625 285.863281 339.40625 C 285.863281 339.40625 280.324219 333.683594 277.550781 336.082031 C 273.867188 339.277344 277.738281 345.492188 279.585938 348.820312 C 279.585938 348.820312 273.835938 346.375 274.601562 350.851562 C 276.238281 360.539062 282.4375 368.070312 290.160156 372.640625 Z M 290.160156 372.640625 " fill-opacity="1" fill-rule="nonzero"/><path fill="#231f20" d="M 165.714844 107.234375 C 129.007812 80.542969 131.125 55.109375 173.578125 44.257812 C 174.257812 27.125 196.964844 20.449219 217.523438 36.726562 C 240.546875 23.277344 276.632812 50.292969 248.199219 74.894531 C 230.265625 90.433594 199.082031 107.234375 199.082031 107.234375 C 186.136719 115.128906 172.296875 85.507812 172.589844 101.757812 Z M 165.714844 107.234375 " fill-opacity="1" fill-rule="nonzero"/><path fill="#9f584e" d="M 230.277344 62.359375 C 230.277344 62.359375 262.488281 125.894531 217.050781 139.410156 L 223.972656 161.769531 C 223.972656 161.769531 218.375 171.882812 200.015625 173.894531 C 181.652344 175.902344 169.824219 163.972656 169.824219 163.972656 L 172.3125 111.617188 C 172.3125 111.617188 161.207031 108.09375 160.625 98.492188 C 160.042969 88.894531 170.132812 86.382812 181.050781 89.417969 L 187.453125 70.300781 C 187.453125 70.300781 204.550781 72.800781 215.601562 53.773438 C 215.609375 53.773438 225.816406 62.8125 230.277344 62.359375 Z M 230.277344 62.359375 " fill-opacity="1" fill-rule="nonzero"/><path fill="#421714" d="M 199.574219 91.558594 C 199.886719 91.449219 200.207031 91.367188 200.539062 91.316406 C 200.867188 91.265625 201.199219 91.25 201.53125 91.265625 C 201.863281 91.28125 202.191406 91.328125 202.515625 91.40625 C 202.839844 91.488281 203.152344 91.597656 203.453125 91.742188 C 203.753906 91.882812 204.039062 92.050781 204.304688 92.25 C 204.574219 92.445312 204.820312 92.667969 205.046875 92.914062 C 205.269531 93.160156 205.46875 93.425781 205.640625 93.710938 C 205.8125 93.996094 205.953125 94.296875 206.066406 94.609375 C 206.179688 94.921875 206.261719 95.242188 206.3125 95.570312 C 206.363281 95.902344 206.378906 96.230469 206.363281 96.566406 C 206.347656 96.898438 206.300781 97.226562 206.222656 97.546875 C 206.140625 97.871094 206.03125 98.183594 205.890625 98.484375 C 205.746094 98.789062 205.578125 99.070312 205.382812 99.339844 C 205.183594 99.609375 204.960938 99.855469 204.714844 100.078125 C 204.46875 100.304688 204.203125 100.5 203.917969 100.675781 C 203.632812 100.847656 203.335938 100.988281 203.023438 101.101562 C 202.707031 101.214844 202.386719 101.296875 202.058594 101.347656 C 201.730469 101.398438 201.398438 101.414062 201.066406 101.398438 C 200.730469 101.382812 200.402344 101.335938 200.082031 101.257812 C 199.757812 101.175781 199.445312 101.066406 199.144531 100.925781 C 198.839844 100.785156 198.558594 100.613281 198.289062 100.417969 C 198.019531 100.21875 197.773438 100 197.550781 99.753906 C 197.324219 99.507812 197.125 99.242188 196.953125 98.957031 C 196.78125 98.671875 196.636719 98.371094 196.523438 98.058594 C 196.410156 97.746094 196.328125 97.425781 196.28125 97.09375 C 196.230469 96.765625 196.210938 96.433594 196.226562 96.101562 C 196.242188 95.769531 196.289062 95.441406 196.371094 95.117188 C 196.449219 94.792969 196.558594 94.480469 196.703125 94.179688 C 196.84375 93.875 197.011719 93.589844 197.210938 93.324219 C 197.410156 93.054688 197.628906 92.808594 197.878906 92.582031 C 198.125 92.359375 198.390625 92.160156 198.675781 91.988281 C 198.960938 91.816406 199.261719 91.671875 199.574219 91.558594 Z M 199.574219 91.558594 " fill-opacity="1" fill-rule="nonzero"/><path fill="#231f20" d="M 217.980469 139.65625 L 221.828125 154.992188 C 221.828125 154.992188 205.558594 148.507812 198.3125 136.191406 C 195.15625 133.449219 192.742188 130.164062 191.070312 126.335938 C 190.980469 126.097656 190.984375 125.859375 191.078125 125.621094 C 191.175781 125.382812 191.339844 125.210938 191.574219 125.101562 C 191.804688 124.996094 192.042969 124.980469 192.289062 125.058594 C 192.53125 125.140625 192.714844 125.289062 192.839844 125.515625 C 201.0625 143.292969 216.132812 138.683594 216.753906 138.484375 C 217.121094 138.359375 217.441406 138.429688 217.722656 138.699219 C 218 138.964844 218.085938 139.285156 217.980469 139.65625 Z M 226.410156 74.839844 C 227.683594 75.476562 229.035156 75.828125 230.460938 75.894531 C 231.882812 75.960938 233.261719 75.738281 234.589844 75.222656 C 235.367188 74.992188 235.949219 74.515625 236.332031 73.800781 C 236.453125 73.433594 236.472656 73.058594 236.390625 72.675781 C 236.3125 72.296875 236.140625 71.960938 235.875 71.671875 C 235.34375 71.101562 234.707031 70.695312 233.964844 70.457031 C 232.652344 69.917969 231.292969 69.648438 229.875 69.648438 C 229.175781 69.703125 228.484375 69.816406 227.804688 69.992188 L 227.722656 69.992188 C 226.96875 70.125 226.257812 70.375 225.585938 70.738281 C 224.980469 71.0625 224.609375 71.5625 224.472656 72.234375 C 224.332031 73.371094 225.378906 74.316406 226.410156 74.839844 Z M 209.746094 86.097656 C 210.863281 86.660156 212.195312 85.988281 213.160156 85.203125 C 214.429688 84.152344 215.464844 82.90625 216.269531 81.46875 C 216.875 80.527344 217.15625 79.496094 217.105469 78.375 C 217.085938 78.105469 217.019531 77.847656 216.914062 77.597656 C 216.808594 77.347656 216.667969 77.121094 216.488281 76.921875 C 216.308594 76.71875 216.101562 76.550781 215.867188 76.414062 C 215.632812 76.28125 215.382812 76.1875 215.117188 76.132812 C 214.511719 76.117188 213.933594 76.238281 213.382812 76.5 C 212.648438 76.78125 211.996094 77.195312 211.425781 77.738281 C 210.316406 78.886719 209.503906 80.214844 208.988281 81.722656 C 208.65625 82.480469 208.503906 83.269531 208.535156 84.097656 C 208.550781 84.511719 208.664062 84.898438 208.882812 85.253906 C 209.097656 85.609375 209.382812 85.890625 209.746094 86.097656 Z M 225.519531 79.242188 C 225.285156 79.371094 225.128906 79.5625 225.054688 79.820312 C 224.976562 80.074219 225.003906 80.320312 225.128906 80.554688 C 226.675781 83.402344 230.464844 91.5 229.417969 94.75 C 229.320312 95.1875 229.070312 95.515625 228.671875 95.730469 C 228.433594 95.847656 228.265625 96.03125 228.179688 96.285156 C 228.09375 96.539062 228.109375 96.785156 228.226562 97.027344 C 228.34375 97.269531 228.527344 97.433594 228.78125 97.519531 C 229.035156 97.609375 229.28125 97.59375 229.523438 97.476562 C 230.40625 97.035156 230.992188 96.339844 231.273438 95.394531 C 232.769531 90.753906 227.453125 80.78125 226.84375 79.660156 C 226.78125 79.542969 226.703125 79.441406 226.605469 79.359375 C 226.503906 79.273438 226.394531 79.210938 226.269531 79.171875 C 226.144531 79.132812 226.015625 79.121094 225.886719 79.132812 C 225.757812 79.144531 225.632812 79.179688 225.519531 79.242188 Z M 228.648438 103.25 C 227.425781 103.527344 226.191406 103.578125 224.949219 103.394531 C 223.707031 103.210938 222.539062 102.808594 221.445312 102.191406 C 218.882812 100.628906 217.140625 97.707031 216.269531 93.578125 C 216.210938 93.3125 216.070312 93.109375 215.847656 92.964844 C 215.621094 92.816406 215.375 92.769531 215.113281 92.828125 C 214.851562 92.882812 214.644531 93.023438 214.5 93.25 C 214.351562 93.472656 214.308594 93.71875 214.363281 93.980469 C 215.355469 98.695312 217.402344 102.019531 220.453125 103.871094 C 222.273438 104.949219 224.242188 105.480469 226.355469 105.457031 C 227.308594 105.46875 228.25 105.359375 229.171875 105.128906 C 229.433594 105.054688 229.628906 104.902344 229.761719 104.667969 C 229.890625 104.433594 229.921875 104.1875 229.847656 103.929688 C 229.777344 103.667969 229.625 103.472656 229.390625 103.339844 C 229.15625 103.210938 228.910156 103.179688 228.648438 103.25 Z M 233.820312 80.167969 C 233.582031 80.253906 233.371094 80.378906 233.183594 80.546875 C 233 80.71875 232.851562 80.917969 232.742188 81.144531 C 232.636719 81.371094 232.574219 81.613281 232.5625 81.863281 C 232.550781 82.117188 232.589844 82.359375 232.675781 82.597656 C 232.757812 82.835938 232.886719 83.046875 233.054688 83.234375 C 233.226562 83.417969 233.425781 83.566406 233.652344 83.671875 C 233.882812 83.78125 234.121094 83.839844 234.375 83.851562 C 234.625 83.863281 234.871094 83.824219 235.105469 83.738281 C 235.34375 83.652344 235.554688 83.523438 235.742188 83.355469 C 235.925781 83.183594 236.074219 82.984375 236.179688 82.757812 C 236.285156 82.527344 236.34375 82.289062 236.355469 82.035156 C 236.367188 81.785156 236.328125 81.539062 236.242188 81.304688 C 236.15625 81.066406 236.03125 80.855469 235.859375 80.671875 C 235.691406 80.488281 235.496094 80.339844 235.265625 80.234375 C 235.039062 80.128906 234.800781 80.070312 234.550781 80.058594 C 234.300781 80.046875 234.058594 80.082031 233.820312 80.167969 Z M 219.96875 89.050781 C 220.203125 88.964844 220.417969 88.835938 220.601562 88.667969 C 220.789062 88.5 220.9375 88.300781 221.042969 88.070312 C 221.152344 87.84375 221.210938 87.601562 221.222656 87.351562 C 221.234375 87.097656 221.195312 86.855469 221.109375 86.617188 C 221.023438 86.378906 220.898438 86.167969 220.726562 85.984375 C 220.554688 85.796875 220.355469 85.652344 220.128906 85.542969 C 219.898438 85.4375 219.660156 85.378906 219.40625 85.367188 C 219.15625 85.359375 218.910156 85.394531 218.671875 85.480469 C 218.4375 85.570312 218.226562 85.699219 218.039062 85.867188 C 217.855469 86.039062 217.707031 86.238281 217.601562 86.46875 C 217.496094 86.695312 217.4375 86.9375 217.429688 87.191406 C 217.417969 87.441406 217.457031 87.6875 217.546875 87.921875 C 217.632812 88.15625 217.761719 88.367188 217.929688 88.550781 C 218.097656 88.734375 218.296875 88.878906 218.523438 88.984375 C 218.75 89.089844 218.988281 89.148438 219.238281 89.160156 C 219.488281 89.171875 219.730469 89.132812 219.96875 89.050781 Z M 175.128906 96.003906 C 172.222656 95.070312 168.765625 95.902344 164.847656 98.476562 C 164.621094 98.625 164.480469 98.832031 164.425781 99.09375 C 164.371094 99.359375 164.417969 99.601562 164.566406 99.828125 C 164.714844 100.050781 164.921875 100.191406 165.183594 100.246094 C 165.449219 100.300781 165.691406 100.253906 165.917969 100.105469 C 169.308594 97.867188 172.203125 97.117188 174.511719 97.867188 C 175.324219 98.160156 176.050781 98.601562 176.6875 99.191406 C 177.320312 99.78125 177.8125 100.472656 178.164062 101.265625 C 178.238281 101.449219 178.355469 101.601562 178.523438 101.714844 C 178.6875 101.828125 178.867188 101.882812 179.070312 101.882812 C 179.191406 101.886719 179.308594 101.863281 179.421875 101.816406 C 179.542969 101.769531 179.648438 101.703125 179.742188 101.613281 C 179.839844 101.523438 179.910156 101.417969 179.964844 101.300781 C 180.015625 101.179688 180.042969 101.054688 180.046875 100.925781 C 180.050781 100.792969 180.027344 100.667969 179.980469 100.546875 C 179.523438 99.480469 178.871094 98.550781 178.023438 97.757812 C 177.171875 96.96875 176.199219 96.382812 175.101562 96.003906 Z M 175.128906 96.003906 " fill-opacity="1" fill-rule="nonzero"/><path fill="#231f20" d="M 336.90625 322.238281 C 336.722656 322.578125 336.4375 322.75 336.046875 322.746094 C 335.882812 322.746094 335.730469 322.707031 335.585938 322.625 L 267 285.234375 C 266.765625 285.105469 266.609375 284.914062 266.53125 284.65625 C 266.457031 284.398438 266.484375 284.148438 266.613281 283.914062 C 266.742188 283.675781 266.933594 283.519531 267.191406 283.445312 C 267.449219 283.371094 267.699219 283.394531 267.933594 283.523438 L 288.707031 294.859375 C 287.070312 289.628906 280.585938 267.875 279.851562 248.21875 C 279.84375 247.949219 279.933594 247.71875 280.117188 247.519531 C 280.300781 247.324219 280.527344 247.222656 280.792969 247.210938 C 281.058594 247.210938 281.28125 247.300781 281.472656 247.484375 C 281.660156 247.667969 281.757812 247.890625 281.765625 248.152344 C 282.589844 270.265625 290.808594 295.164062 290.890625 295.410156 C 290.96875 295.628906 290.96875 295.84375 290.890625 296.0625 L 336.527344 320.945312 C 336.753906 321.074219 336.902344 321.265625 336.976562 321.515625 C 337.050781 321.765625 337.027344 322.007812 336.90625 322.238281 Z M 125.585938 258.035156 C 125.457031 258.046875 125.335938 258.082031 125.222656 258.144531 C 125.105469 258.203125 125.007812 258.28125 124.925781 258.382812 C 124.839844 258.480469 124.78125 258.59375 124.742188 258.71875 C 124.703125 258.839844 124.691406 258.96875 124.703125 259.097656 C 126.410156 277.816406 119.921875 306.722656 116.042969 323.992188 C 113.5625 335.058594 113.054688 337.746094 113.511719 338.769531 C 113.683594 339.148438 113.976562 339.335938 114.390625 339.339844 C 114.535156 339.335938 114.671875 339.308594 114.804688 339.25 C 115.035156 339.140625 115.199219 338.96875 115.296875 338.730469 C 115.390625 338.492188 115.394531 338.253906 115.304688 338.015625 C 115.132812 336.976562 116.5 330.875 117.949219 324.417969 C 121.851562 307.035156 128.375 277.945312 126.648438 258.917969 C 126.621094 258.648438 126.503906 258.429688 126.296875 258.257812 C 126.09375 258.085938 125.855469 258.011719 125.585938 258.035156 Z M 125.585938 258.035156 " fill-opacity="1" fill-rule="nonzero"/><path fill="#f3f3f3" d="M 176.140625 199.519531 L 175.96875 199.519531 C 175.652344 199.457031 144.582031 193.378906 139.515625 159.925781 C 139.476562 159.65625 139.535156 159.417969 139.695312 159.199219 C 139.859375 158.984375 140.070312 158.855469 140.335938 158.816406 C 140.605469 158.777344 140.84375 158.839844 141.0625 159 C 141.277344 159.160156 141.40625 159.375 141.445312 159.640625 C 145.925781 189.148438 171.46875 196.457031 175.722656 197.472656 L 192.234375 174.230469 C 192.40625 173.988281 192.636719 173.851562 192.929688 173.828125 C 193.21875 173.796875 193.46875 173.878906 193.679688 174.082031 L 218.839844 197.351562 C 223.359375 194.773438 251.792969 177.554688 249.007812 153 C 248.976562 152.730469 249.042969 152.492188 249.210938 152.285156 C 249.378906 152.074219 249.59375 151.953125 249.863281 151.921875 C 250.128906 151.890625 250.367188 151.957031 250.578125 152.125 C 250.789062 152.292969 250.910156 152.507812 250.941406 152.773438 C 254.109375 180.632812 219.496094 199.21875 219.144531 199.40625 C 218.960938 199.503906 218.769531 199.539062 218.5625 199.511719 C 218.359375 199.484375 218.183594 199.398438 218.03125 199.257812 L 193.191406 176.246094 L 176.945312 199.105469 C 176.75 199.382812 176.480469 199.523438 176.140625 199.519531 Z M 244.246094 258.304688 C 250.441406 257.476562 255.015625 254.75 257.839844 250.183594 C 260.828125 245.394531 261.800781 238.761719 260.78125 230.46875 C 260.332031 226.734375 259.53125 223.078125 258.382812 219.496094 C 258.3125 219.273438 258.175781 219.101562 257.976562 218.980469 C 257.78125 218.859375 257.566406 218.8125 257.339844 218.84375 L 219.800781 223.886719 C 219.566406 223.921875 219.367188 224.027344 219.207031 224.203125 C 219.046875 224.382812 218.964844 224.589844 218.957031 224.828125 C 218.957031 228.570312 219.300781 232.277344 219.988281 235.953125 C 221.484375 244.171875 224.472656 250.242188 228.71875 254.0625 C 230.398438 255.554688 232.292969 256.691406 234.402344 257.464844 C 236.515625 258.238281 238.695312 258.597656 240.941406 258.542969 C 242.050781 258.535156 243.148438 258.457031 244.246094 258.304688 Z M 256.792969 220.898438 C 257.867188 224.476562 261.972656 239.851562 256.1875 249.175781 C 253.683594 253.21875 249.582031 255.636719 244 256.382812 C 238.417969 257.132812 233.671875 255.863281 230.023438 252.589844 C 221.714844 245.117188 220.96875 229.429688 220.910156 225.695312 Z M 256.792969 220.898438 " fill-opacity="1" fill-rule="nonzero"/><path fill="#231f20" d="M 24.152344 357.78125 C 24.039062 357.785156 23.929688 357.765625 23.824219 357.722656 C 23.570312 357.632812 23.386719 357.46875 23.269531 357.226562 C 23.15625 356.984375 23.144531 356.734375 23.234375 356.484375 C 24.839844 352.203125 26.730469 348.050781 28.902344 344.03125 C 33.753906 335.066406 38.917969 328.925781 44.261719 325.71875 C 44.492188 325.578125 44.738281 325.542969 44.996094 325.605469 C 45.257812 325.671875 45.460938 325.820312 45.597656 326.050781 C 45.734375 326.28125 45.773438 326.527344 45.707031 326.789062 C 45.640625 327.046875 45.492188 327.246094 45.261719 327.386719 C 33.1875 334.632812 25.144531 356.910156 25.085938 357.132812 C 25.015625 357.332031 24.894531 357.488281 24.722656 357.609375 C 24.550781 357.726562 24.359375 357.785156 24.152344 357.78125 Z M 303.445312 366.457031 C 303.484375 366.332031 303.5 366.207031 303.488281 366.078125 C 303.476562 365.949219 303.441406 365.828125 303.382812 365.710938 C 303.324219 365.597656 303.242188 365.496094 303.144531 365.414062 C 303.042969 365.332031 302.933594 365.269531 302.808594 365.230469 C 291.347656 361.617188 280.449219 348.347656 280.339844 348.222656 C 280.261719 348.105469 280.167969 348.011719 280.050781 347.9375 C 279.9375 347.863281 279.808594 347.816406 279.671875 347.796875 C 279.539062 347.777344 279.402344 347.785156 279.269531 347.820312 C 279.136719 347.855469 279.019531 347.917969 278.914062 348.003906 C 278.804688 348.09375 278.722656 348.199219 278.660156 348.320312 C 278.597656 348.441406 278.566406 348.574219 278.558594 348.710938 C 278.550781 348.847656 278.574219 348.980469 278.625 349.109375 C 278.671875 349.238281 278.746094 349.347656 278.84375 349.445312 C 279.300781 350.015625 290.210938 363.296875 302.242188 367.089844 C 302.335938 367.121094 302.433594 367.136719 302.53125 367.136719 C 302.742188 367.132812 302.933594 367.070312 303.101562 366.945312 C 303.269531 366.820312 303.382812 366.65625 303.445312 366.457031 Z M 310.261719 359.734375 C 310.386719 359.492188 310.410156 359.246094 310.328125 358.988281 C 310.25 358.726562 310.089844 358.535156 309.847656 358.410156 C 297.054688 351.6875 286.726562 338.925781 286.625 338.800781 C 286.445312 338.644531 286.234375 338.566406 285.996094 338.5625 C 285.761719 338.558594 285.550781 338.632812 285.367188 338.78125 C 285.179688 338.933594 285.066406 339.125 285.023438 339.355469 C 284.976562 339.589844 285.011719 339.8125 285.128906 340.019531 C 285.5625 340.554688 295.808594 353.25 308.972656 360.136719 C 309.117188 360.214844 309.269531 360.25 309.429688 360.25 C 309.804688 360.242188 310.082031 360.070312 310.261719 359.742188 Z M 321.550781 353.421875 C 321.660156 353.175781 321.667969 352.925781 321.570312 352.675781 C 321.476562 352.425781 321.304688 352.246094 321.058594 352.136719 C 315.648438 349.730469 309.488281 343.917969 309.429688 343.871094 C 309.339844 343.769531 309.230469 343.691406 309.109375 343.632812 C 308.984375 343.574219 308.851562 343.542969 308.714844 343.542969 C 308.578125 343.539062 308.445312 343.5625 308.320312 343.617188 C 308.191406 343.667969 308.082031 343.746094 307.988281 343.84375 C 307.890625 343.945312 307.820312 344.058594 307.773438 344.1875 C 307.730469 344.316406 307.710938 344.449219 307.71875 344.585938 C 307.730469 344.722656 307.765625 344.851562 307.828125 344.972656 C 307.890625 345.09375 307.976562 345.199219 308.085938 345.285156 C 308.347656 345.53125 314.550781 351.375 320.265625 353.914062 C 320.390625 353.96875 320.523438 353.996094 320.660156 353.996094 C 321.078125 353.996094 321.375 353.804688 321.550781 353.429688 Z M 40.578125 355.027344 C 43.300781 351.101562 46.304688 347.40625 49.597656 343.941406 C 56.246094 337.039062 62.007812 333.816406 66.273438 334.601562 C 66.40625 334.636719 66.539062 334.644531 66.675781 334.621094 C 66.808594 334.601562 66.933594 334.554688 67.050781 334.480469 C 67.164062 334.40625 67.257812 334.3125 67.335938 334.203125 C 67.410156 334.089844 67.460938 333.964844 67.484375 333.832031 C 67.511719 333.695312 67.507812 333.5625 67.476562 333.429688 C 67.445312 333.296875 67.390625 333.179688 67.308594 333.070312 C 67.226562 332.960938 67.125 332.871094 67.007812 332.804688 C 66.890625 332.738281 66.761719 332.695312 66.625 332.683594 C 54.871094 330.5 39.589844 352.988281 38.976562 353.941406 C 38.828125 354.167969 38.777344 354.410156 38.832031 354.671875 C 38.882812 354.9375 39.015625 355.144531 39.238281 355.296875 C 39.402344 355.40625 39.585938 355.464844 39.785156 355.46875 C 40.117188 355.453125 40.375 355.308594 40.5625 355.035156 Z M 40.578125 355.027344 " fill-opacity="1" fill-rule="nonzero"/></svg>