<svg xmlns="http://www.w3.org/2000/svg" xmlns:xlink="http://www.w3.org/1999/xlink" width="500" zoomAndPan="magnify" viewBox="0 0 375 374.999991" height="500" preserveAspectRatio="xMidYMid meet" version="1.0"><defs><clipPath id="e6e36d048d"><path d="M 95 62.808594 L 169 62.808594 L 169 104 L 95 104 Z M 95 62.808594 " clip-rule="nonzero"/></clipPath><clipPath id="5325c9154c"><path d="M 250 121 L 367.996094 121 L 367.996094 252 L 250 252 Z M 250 121 " clip-rule="nonzero"/></clipPath></defs><path fill="#ebb38b" d="M 177.566406 113.265625 C 177.558594 113.65625 177.527344 114.042969 177.476562 114.429688 C 177.425781 114.816406 177.347656 115.199219 177.253906 115.574219 C 177.15625 115.953125 177.039062 116.324219 176.898438 116.6875 C 176.757812 117.050781 176.597656 117.40625 176.417969 117.75 C 176.234375 118.097656 176.035156 118.429688 175.816406 118.75 C 175.59375 119.074219 175.359375 119.382812 175.101562 119.675781 C 174.847656 119.972656 174.574219 120.25 174.285156 120.511719 C 173.996094 120.773438 173.695312 121.019531 173.378906 121.25 C 173.0625 121.476562 172.734375 121.683594 172.390625 121.875 C 172.050781 122.0625 171.699219 122.234375 171.339844 122.382812 C 170.980469 122.53125 170.609375 122.660156 170.234375 122.765625 C 169.859375 122.871094 169.480469 122.957031 169.09375 123.019531 C 168.707031 123.078125 168.320312 123.121094 167.929688 123.136719 C 167.539062 123.152344 167.152344 123.148438 166.761719 123.121094 C 166.371094 123.09375 165.984375 123.042969 165.601562 122.96875 C 165.21875 122.894531 164.839844 122.800781 164.46875 122.683594 C 162.34375 131.695312 157.859375 139.441406 151.894531 144.824219 L 151.894531 180.910156 C 150.386719 181.675781 148.84375 182.355469 147.265625 182.949219 C 145.683594 183.539062 144.074219 184.042969 142.433594 184.453125 C 140.796875 184.863281 139.140625 185.179688 137.464844 185.402344 C 135.792969 185.628906 134.109375 185.757812 132.421875 185.789062 C 130.734375 185.824219 129.046875 185.765625 127.367188 185.609375 C 125.683594 185.453125 124.015625 185.203125 122.363281 184.859375 C 120.710938 184.515625 119.082031 184.078125 117.476562 183.550781 C 115.871094 183.023438 114.300781 182.410156 112.769531 181.707031 L 111.039062 180.910156 L 111.039062 143.839844 L 111.246094 143.839844 C 108.347656 140.914062 105.917969 137.644531 103.949219 134.027344 C 101.984375 130.414062 100.558594 126.597656 99.679688 122.578125 C 99.175781 122.652344 98.671875 122.695312 98.164062 122.699219 C 97.5 122.71875 96.84375 122.671875 96.191406 122.558594 C 95.539062 122.445312 94.90625 122.269531 94.289062 122.027344 C 93.671875 121.789062 93.085938 121.488281 92.527344 121.132812 C 91.972656 120.773438 91.457031 120.363281 90.980469 119.902344 C 90.507812 119.441406 90.082031 118.941406 89.707031 118.394531 C 89.335938 117.847656 89.019531 117.273438 88.761719 116.664062 C 88.503906 116.054688 88.308594 115.425781 88.179688 114.777344 C 88.046875 114.128906 87.980469 113.476562 87.980469 112.816406 C 87.980469 112.15625 88.046875 111.5 88.179688 110.851562 C 88.308594 110.207031 88.503906 109.578125 88.761719 108.96875 C 89.019531 108.359375 89.335938 107.78125 89.707031 107.238281 C 90.082031 106.691406 90.507812 106.1875 90.980469 105.726562 C 91.457031 105.265625 91.972656 104.859375 92.527344 104.5 C 93.085938 104.140625 93.671875 103.84375 94.289062 103.601562 C 94.90625 103.363281 95.539062 103.1875 96.191406 103.074219 C 96.84375 102.960938 97.5 102.914062 98.164062 102.929688 C 98.433594 102.929688 98.707031 102.929688 98.972656 102.96875 C 102.003906 83.675781 115.648438 69.105469 132.089844 69.105469 C 148.703125 69.089844 162.503906 83.992188 165.300781 103.664062 C 166.03125 103.5 166.769531 103.417969 167.515625 103.414062 C 168.167969 103.410156 168.816406 103.46875 169.457031 103.59375 C 170.101562 103.714844 170.722656 103.898438 171.328125 104.144531 C 171.933594 104.386719 172.511719 104.6875 173.058594 105.046875 C 173.605469 105.40625 174.109375 105.8125 174.578125 106.269531 C 175.042969 106.726562 175.460938 107.222656 175.828125 107.761719 C 176.199219 108.300781 176.511719 108.871094 176.765625 109.472656 C 177.023438 110.070312 177.21875 110.691406 177.351562 111.328125 C 177.488281 111.96875 177.558594 112.613281 177.566406 113.265625 Z M 177.566406 113.265625 " fill-opacity="1" fill-rule="nonzero"/><path fill="#678fbc" d="M 118.632812 120.492188 C 118.578125 120.988281 118.429688 121.457031 118.191406 121.894531 C 117.949219 122.332031 117.632812 122.707031 117.242188 123.019531 C 116.851562 123.332031 116.417969 123.5625 115.9375 123.703125 C 115.457031 123.84375 114.96875 123.886719 114.46875 123.835938 C 113.972656 123.78125 113.503906 123.636719 113.0625 123.398438 C 112.621094 123.160156 112.246094 122.847656 111.929688 122.460938 C 111.613281 122.074219 111.382812 121.640625 111.238281 121.160156 C 111.09375 120.683594 111.046875 120.195312 111.097656 119.695312 C 111.148438 119.199219 111.289062 118.730469 111.527344 118.289062 C 111.761719 117.847656 112.074219 117.46875 112.460938 117.152344 C 112.847656 116.835938 113.277344 116.601562 113.757812 116.457031 C 114.238281 116.308594 114.726562 116.261719 115.222656 116.308594 C 115.472656 116.332031 115.71875 116.378906 115.960938 116.449219 C 116.203125 116.523438 116.433594 116.617188 116.65625 116.738281 C 116.875 116.855469 117.085938 116.996094 117.277344 117.152344 C 117.472656 117.3125 117.648438 117.492188 117.808594 117.6875 C 117.964844 117.878906 118.105469 118.089844 118.222656 118.3125 C 118.339844 118.53125 118.433594 118.765625 118.503906 119.003906 C 118.574219 119.246094 118.621094 119.492188 118.644531 119.742188 C 118.664062 119.992188 118.664062 120.242188 118.632812 120.492188 Z M 118.632812 120.492188 " fill-opacity="1" fill-rule="nonzero"/><g clip-path="url(#e6e36d048d)"><path fill="#231f20" d="M 165.300781 103.574219 C 165.300781 103.574219 153.933594 96.808594 150.785156 86.089844 C 147.515625 85.304688 144.375 84.171875 141.359375 82.683594 C 133.308594 88.859375 125.265625 82.375 125.265625 82.375 C 122.089844 84.644531 117.90625 85.066406 113.898438 84.707031 C 111.289062 96.21875 98.601562 103.535156 98.601562 103.535156 C 91.78125 87.367188 98.964844 81.59375 101.050781 80.285156 C 104.082031 76.753906 117.027344 62.808594 131.890625 62.808594 C 147.753906 62.808594 163.269531 82.390625 165.300781 85.023438 C 168.960938 87.632812 171.257812 92.914062 165.300781 103.574219 Z M 165.300781 103.574219 " fill-opacity="1" fill-rule="nonzero"/></g><path fill="#231f20" d="M 152.726562 100.789062 C 152.863281 101.175781 152.898438 101.566406 152.835938 101.972656 C 152.769531 102.375 152.613281 102.738281 152.363281 103.058594 C 151.542969 103.988281 150.089844 103.875 148.890625 103.511719 C 147.339844 103.039062 145.929688 102.296875 144.664062 101.289062 C 143.753906 100.65625 143.109375 99.820312 142.730469 98.777344 C 142.644531 98.523438 142.605469 98.257812 142.605469 97.988281 C 142.609375 97.71875 142.652344 97.457031 142.742188 97.203125 C 142.828125 96.949219 142.953125 96.714844 143.117188 96.5 C 143.28125 96.289062 143.476562 96.105469 143.699219 95.957031 C 144.253906 95.710938 144.832031 95.609375 145.433594 95.644531 C 146.222656 95.621094 146.980469 95.757812 147.710938 96.046875 C 149.152344 96.683594 150.390625 97.59375 151.429688 98.777344 C 152.019531 99.347656 152.449219 100.019531 152.726562 100.789062 Z M 113.3125 103.519531 C 114.867188 103.046875 116.277344 102.304688 117.550781 101.296875 C 118.457031 100.664062 119.101562 99.824219 119.476562 98.785156 C 119.5625 98.527344 119.605469 98.265625 119.601562 97.996094 C 119.601562 97.726562 119.558594 97.464844 119.46875 97.210938 C 119.382812 96.953125 119.257812 96.71875 119.089844 96.507812 C 118.925781 96.292969 118.730469 96.113281 118.503906 95.964844 C 117.953125 95.71875 117.375 95.617188 116.769531 95.652344 C 115.984375 95.628906 115.226562 95.761719 114.496094 96.054688 C 113.050781 96.6875 111.808594 97.597656 110.765625 98.785156 C 110.175781 99.351562 109.738281 100.019531 109.457031 100.789062 C 109.320312 101.175781 109.285156 101.570312 109.351562 101.972656 C 109.417969 102.375 109.574219 102.738281 109.828125 103.058594 C 110.644531 103.996094 112.125 103.882812 113.296875 103.519531 Z M 116.210938 105.683594 C 115.960938 105.660156 115.71875 105.683594 115.484375 105.753906 C 115.246094 105.828125 115.03125 105.941406 114.839844 106.097656 C 114.648438 106.253906 114.492188 106.441406 114.375 106.65625 C 114.257812 106.875 114.183594 107.109375 114.160156 107.355469 C 114.136719 107.601562 114.15625 107.84375 114.230469 108.078125 C 114.300781 108.316406 114.414062 108.53125 114.570312 108.722656 C 114.726562 108.914062 114.914062 109.070312 115.132812 109.1875 C 115.347656 109.304688 115.582031 109.378906 115.828125 109.402344 C 116.074219 109.429688 116.316406 109.40625 116.554688 109.335938 C 116.792969 109.265625 117.007812 109.152344 117.199219 108.996094 C 117.394531 108.839844 117.546875 108.65625 117.667969 108.4375 C 117.785156 108.21875 117.859375 107.988281 117.882812 107.742188 C 117.910156 107.492188 117.886719 107.25 117.816406 107.011719 C 117.746094 106.769531 117.628906 106.554688 117.46875 106.359375 C 117.3125 106.167969 117.121094 106.011719 116.898438 105.894531 C 116.679688 105.777344 116.441406 105.707031 116.195312 105.683594 Z M 144.503906 105.683594 C 144.257812 105.660156 144.015625 105.683594 143.777344 105.753906 C 143.539062 105.828125 143.324219 105.941406 143.132812 106.097656 C 142.941406 106.253906 142.785156 106.441406 142.667969 106.65625 C 142.550781 106.875 142.480469 107.109375 142.453125 107.355469 C 142.429688 107.601562 142.453125 107.84375 142.523438 108.078125 C 142.59375 108.316406 142.707031 108.53125 142.863281 108.722656 C 143.019531 108.914062 143.207031 109.070312 143.425781 109.1875 C 143.644531 109.304688 143.875 109.378906 144.121094 109.402344 C 144.367188 109.429688 144.609375 109.40625 144.847656 109.335938 C 145.085938 109.265625 145.300781 109.152344 145.496094 108.996094 C 145.6875 108.839844 145.84375 108.65625 145.960938 108.4375 C 146.078125 108.21875 146.152344 107.988281 146.179688 107.742188 C 146.203125 107.492188 146.183594 107.25 146.109375 107.011719 C 146.039062 106.769531 145.921875 106.554688 145.765625 106.359375 C 145.605469 106.167969 145.414062 106.011719 145.195312 105.894531 C 144.972656 105.777344 144.738281 105.707031 144.488281 105.683594 Z M 135.089844 149.058594 C 124.347656 152.984375 115.320312 146.480469 111.941406 143.5 C 111.769531 143.347656 111.566406 143.277344 111.335938 143.289062 C 111.109375 143.304688 110.914062 143.398438 110.761719 143.570312 C 110.609375 143.742188 110.542969 143.945312 110.554688 144.171875 C 110.570312 144.402344 110.664062 144.59375 110.835938 144.746094 L 111.136719 145.003906 L 111.039062 158.820312 C 111.039062 158.820312 116.003906 157.398438 126.578125 151.882812 C 127.132812 151.917969 127.683594 151.949219 128.253906 151.949219 C 130.800781 151.945312 133.269531 151.503906 135.65625 150.617188 C 135.855469 150.527344 135.996094 150.382812 136.078125 150.183594 C 136.160156 149.980469 136.164062 149.78125 136.089844 149.578125 C 136.015625 149.375 135.882812 149.222656 135.691406 149.125 C 135.5 149.023438 135.296875 149.003906 135.089844 149.058594 Z M 145.640625 118.191406 C 145.527344 118.128906 145.40625 118.089844 145.277344 118.074219 C 145.148438 118.058594 145.023438 118.070312 144.898438 118.109375 C 144.777344 118.144531 144.664062 118.203125 144.5625 118.285156 C 144.460938 118.367188 144.382812 118.464844 144.320312 118.578125 C 141.835938 123.117188 138.683594 125.445312 134.945312 125.523438 C 134.691406 125.542969 134.480469 125.648438 134.308594 125.835938 C 134.140625 126.023438 134.054688 126.242188 134.054688 126.496094 C 134.054688 126.746094 134.140625 126.96875 134.308594 127.152344 C 134.480469 127.339844 134.691406 127.445312 134.945312 127.464844 C 138.023438 127.40625 142.441406 125.953125 145.996094 119.507812 C 146.0625 119.394531 146.105469 119.277344 146.121094 119.148438 C 146.136719 119.019531 146.128906 118.890625 146.097656 118.765625 C 146.0625 118.640625 146.007812 118.527344 145.929688 118.425781 C 145.847656 118.324219 145.753906 118.238281 145.640625 118.175781 Z M 133.019531 119.453125 L 133.171875 119.453125 C 133.410156 119.453125 133.621094 119.371094 133.804688 119.21875 C 133.984375 119.0625 134.097656 118.867188 134.132812 118.628906 C 134.15625 118.5 134.148438 118.375 134.121094 118.25 C 134.089844 118.121094 134.035156 118.007812 133.957031 117.902344 C 133.882812 117.796875 133.789062 117.710938 133.675781 117.644531 C 133.566406 117.578125 133.445312 117.535156 133.316406 117.519531 C 132.59375 117.398438 132.035156 117.03125 131.632812 116.421875 C 129.421875 113.394531 130.171875 105.285156 130.648438 102.425781 C 130.691406 102.160156 130.636719 101.917969 130.480469 101.699219 C 130.328125 101.480469 130.117188 101.347656 129.851562 101.304688 C 129.585938 101.257812 129.34375 101.316406 129.125 101.46875 C 128.90625 101.625 128.773438 101.835938 128.730469 102.097656 C 128.65625 102.550781 126.910156 113.234375 130.050781 117.5625 C 130.394531 118.066406 130.824219 118.480469 131.339844 118.808594 C 131.855469 119.132812 132.417969 119.34375 133.019531 119.4375 Z M 173.949219 110.4375 C 172.28125 109.105469 170.660156 108.621094 169.121094 108.984375 C 166.703125 109.566406 165.535156 112.078125 165.492188 112.183594 C 165.378906 112.425781 165.371094 112.671875 165.460938 112.921875 C 165.554688 113.171875 165.726562 113.351562 165.96875 113.460938 C 166.097656 113.523438 166.234375 113.550781 166.378906 113.554688 C 166.792969 113.550781 167.089844 113.363281 167.265625 112.984375 C 167.265625 112.984375 168.097656 111.222656 169.582031 110.875 C 170.507812 110.664062 171.5625 111.027344 172.730469 111.949219 C 172.9375 112.117188 173.175781 112.1875 173.445312 112.160156 C 173.710938 112.128906 173.929688 112.011719 174.097656 111.800781 C 174.265625 111.59375 174.335938 111.355469 174.308594 111.089844 C 174.277344 110.820312 174.160156 110.605469 173.949219 110.4375 Z M 96.511719 108.960938 C 94.992188 108.597656 93.347656 109.082031 91.6875 110.414062 C 91.480469 110.582031 91.359375 110.796875 91.332031 111.0625 C 91.300781 111.328125 91.371094 111.566406 91.539062 111.773438 C 91.707031 111.984375 91.921875 112.101562 92.1875 112.132812 C 92.453125 112.164062 92.691406 112.09375 92.902344 111.925781 C 94.070312 111.003906 95.121094 110.640625 96.046875 110.851562 C 97.5625 111.199219 98.359375 112.949219 98.375 112.964844 C 98.488281 113.203125 98.667969 113.371094 98.921875 113.46875 C 99.171875 113.5625 99.417969 113.554688 99.664062 113.449219 C 99.90625 113.335938 100.078125 113.15625 100.171875 112.902344 C 100.265625 112.652344 100.257812 112.40625 100.148438 112.160156 C 100.117188 112.0625 98.929688 109.550781 96.511719 108.960938 Z M 96.511719 108.960938 " fill-opacity="1" fill-rule="nonzero"/><path fill="#231f20" d="M 59.945312 273.460938 C 59.789062 273.464844 59.640625 273.429688 59.5 273.355469 C 59.261719 273.234375 59.097656 273.042969 59.015625 272.789062 C 58.933594 272.535156 58.953125 272.285156 59.074219 272.046875 L 77.691406 235.730469 C 77.742188 235.605469 77.816406 235.496094 77.914062 235.402344 C 78.015625 235.304688 78.128906 235.234375 78.253906 235.1875 C 78.382812 235.140625 78.515625 235.121094 78.652344 235.128906 C 78.789062 235.136719 78.917969 235.171875 79.039062 235.234375 C 79.160156 235.296875 79.265625 235.382812 79.351562 235.488281 C 79.4375 235.59375 79.5 235.710938 79.535156 235.839844 C 79.574219 235.972656 79.582031 236.105469 79.5625 236.242188 C 79.542969 236.375 79.496094 236.5 79.425781 236.617188 L 60.8125 272.933594 C 60.632812 273.285156 60.34375 273.460938 59.945312 273.460938 Z M 59.945312 273.460938 " fill-opacity="1" fill-rule="nonzero"/><path fill="#231f20" d="M 208.867188 275.996094 C 208.589844 275.996094 208.355469 275.894531 208.164062 275.695312 C 200.070312 267.191406 190.167969 238.136719 189.753906 236.914062 C 189.679688 236.660156 189.703125 236.421875 189.824219 236.1875 C 189.945312 235.957031 190.128906 235.800781 190.378906 235.714844 C 190.625 235.632812 190.867188 235.644531 191.105469 235.753906 C 191.339844 235.863281 191.507812 236.042969 191.601562 236.285156 C 191.699219 236.578125 201.78125 266.160156 209.574219 274.355469 C 209.761719 274.546875 209.859375 274.773438 209.859375 275.042969 C 209.859375 275.3125 209.761719 275.542969 209.574219 275.730469 C 209.375 275.914062 209.140625 276.003906 208.867188 275.996094 Z M 208.867188 275.996094 " fill-opacity="1" fill-rule="nonzero"/><g clip-path="url(#5325c9154c)"><path fill="#f1f2f2" d="M 367.4375 216.394531 L 297.996094 251.066406 L 250.375 155.988281 L 319.808594 121.316406 Z M 367.4375 216.394531 " fill-opacity="1" fill-rule="nonzero"/></g><path fill="#421714" d="M 300.035156 170.703125 L 274.265625 183.566406 L 265.53125 166.128906 L 291.300781 153.265625 Z M 300.035156 170.703125 " fill-opacity="1" fill-rule="nonzero"/><path fill="#231f20" d="M 298.699219 153.378906 L 298.261719 152.5 L 320.339844 141.492188 L 320.777344 142.363281 Z M 323.8125 148.46875 L 323.378906 147.597656 L 301.324219 158.605469 L 301.753906 159.476562 Z M 326.84375 154.574219 L 326.402344 153.695312 L 304.347656 164.710938 L 304.785156 165.582031 Z M 331.972656 165.921875 L 331.542969 165.046875 L 278.742188 191.425781 L 279.183594 192.296875 Z M 335.363281 172.679688 L 334.921875 171.808594 L 282.078125 198.191406 L 282.519531 199.0625 Z M 338.75 179.433594 L 338.3125 178.566406 L 285.464844 204.945312 L 285.898438 205.816406 Z M 338.75 179.433594 " fill-opacity="1" fill-rule="nonzero"/><path fill="#678fbc" d="M 321.058594 211.550781 C 321.246094 211.957031 321.410156 212.367188 321.550781 212.789062 C 321.691406 213.210938 321.808594 213.640625 321.902344 214.074219 C 321.996094 214.507812 322.070312 214.945312 322.113281 215.390625 C 322.160156 215.832031 322.183594 216.273438 322.183594 216.71875 C 322.183594 217.164062 322.15625 217.605469 322.105469 218.046875 C 322.058594 218.488281 321.984375 218.925781 321.886719 219.359375 C 321.789062 219.796875 321.667969 220.222656 321.523438 220.644531 C 321.378906 221.0625 321.214844 221.476562 321.027344 221.878906 C 320.835938 222.28125 320.628906 222.671875 320.394531 223.050781 C 320.164062 223.433594 319.914062 223.796875 319.644531 224.152344 C 319.371094 224.503906 319.082031 224.839844 318.773438 225.164062 C 318.46875 225.484375 318.144531 225.789062 317.800781 226.074219 C 317.460938 226.359375 317.105469 226.625 316.738281 226.875 C 316.367188 227.121094 315.984375 227.347656 315.589844 227.554688 C 315.195312 227.761719 314.792969 227.945312 314.378906 228.109375 C 313.960938 228.269531 313.539062 228.410156 313.109375 228.527344 C 312.679688 228.644531 312.246094 228.738281 311.804688 228.804688 C 311.367188 228.875 310.925781 228.921875 310.480469 228.941406 C 310.035156 228.964844 309.589844 228.960938 309.144531 228.9375 C 308.699219 228.910156 308.257812 228.859375 307.820312 228.785156 C 307.382812 228.710938 306.949219 228.613281 306.519531 228.488281 C 306.089844 228.367188 305.671875 228.222656 305.257812 228.058594 C 304.84375 227.890625 304.441406 227.699219 304.050781 227.492188 C 303.660156 227.28125 303.277344 227.046875 302.910156 226.796875 C 302.546875 226.542969 302.191406 226.273438 301.855469 225.984375 C 301.519531 225.695312 301.195312 225.386719 300.894531 225.0625 C 300.589844 224.738281 300.304688 224.398438 300.035156 224.039062 C 299.769531 223.683594 299.523438 223.316406 299.296875 222.933594 C 299.070312 222.550781 298.863281 222.15625 298.679688 221.753906 C 298.496094 221.347656 298.335938 220.933594 298.195312 220.511719 C 298.054688 220.089844 297.941406 219.660156 297.847656 219.226562 C 297.753906 218.792969 297.6875 218.351562 297.640625 217.910156 C 297.597656 217.46875 297.578125 217.023438 297.582031 216.582031 C 297.585938 216.136719 297.613281 215.691406 297.664062 215.25 C 297.714844 214.808594 297.789062 214.371094 297.890625 213.9375 C 297.988281 213.507812 298.113281 213.078125 298.257812 212.660156 C 298.402344 212.238281 298.570312 211.828125 298.761719 211.425781 C 298.953125 211.023438 299.164062 210.632812 299.398438 210.253906 C 299.628906 209.875 299.882812 209.511719 300.15625 209.160156 C 300.429688 208.808594 300.71875 208.472656 301.027344 208.152344 C 301.335938 207.832031 301.664062 207.53125 302.003906 207.246094 C 302.347656 206.960938 302.703125 206.695312 303.074219 206.449219 C 303.445312 206.203125 303.828125 205.980469 304.222656 205.773438 C 304.621094 205.570312 305.023438 205.386719 305.441406 205.226562 C 305.855469 205.066406 306.277344 204.929688 306.707031 204.816406 C 307.140625 204.699219 307.574219 204.609375 308.015625 204.542969 C 308.453125 204.472656 308.898438 204.429688 309.34375 204.410156 C 309.785156 204.390625 310.230469 204.394531 310.675781 204.425781 L 309.917969 216.652344 Z M 321.058594 211.550781 " fill-opacity="1" fill-rule="nonzero"/><path fill="#421714" d="M 309.902344 216.652344 L 310.660156 204.425781 C 311.734375 204.492188 312.777344 204.695312 313.796875 205.035156 C 314.816406 205.375 315.777344 205.839844 316.671875 206.433594 C 317.570312 207.023438 318.375 207.722656 319.085938 208.523438 C 319.800781 209.324219 320.398438 210.207031 320.878906 211.164062 C 320.9375 211.292969 320.984375 211.421875 321.042969 211.550781 Z M 340.621094 192.59375 L 329.707031 198.046875 L 332.109375 202.84375 L 343.023438 197.390625 Z M 345.214844 201.746094 L 334.324219 207.203125 L 336.726562 212 L 347.617188 206.558594 Z M 345.214844 201.746094 " fill-opacity="1" fill-rule="nonzero"/><path fill="#ebb38b" d="M 259.910156 219.246094 L 272.035156 189.339844 C 272.035156 189.339844 276.582031 177.316406 277.894531 189.339844 C 279.207031 201.359375 276.589844 205.914062 276.589844 205.914062 C 276.589844 205.914062 287.65625 219.535156 284.40625 231.261719 C 283.898438 233.359375 283.507812 235.476562 283.230469 237.617188 C 274.78125 234.636719 267.039062 228.363281 259.910156 219.246094 Z M 259.910156 219.246094 " fill-opacity="1" fill-rule="nonzero"/><path fill="#421714" d="M 283.230469 237.617188 C 280.402344 256.863281 275.976562 302.792969 246.320312 303.082031 C 229.847656 303.234375 215 286.324219 204.085938 268.914062 L 211.628906 379.648438 L 117.550781 382.28125 L 60.21875 381.402344 L 72.46875 207.859375 L 127.320312 163.667969 L 151.902344 164.945312 C 200.578125 174.367188 211.777344 197.28125 234.757812 243.101562 L 243.710938 259.1875 L 259.910156 219.222656 C 267.039062 228.363281 274.78125 234.636719 283.230469 237.617188 Z M 283.230469 237.617188 " fill-opacity="1" fill-rule="nonzero"/><path fill="#ebb38b" d="M 132.800781 338.695312 C 132.800781 338.695312 135 342.558594 133.558594 344.867188 C 132.117188 347.175781 128.917969 345.765625 128.917969 345.765625 C 129.210938 346.078125 129.429688 346.4375 129.578125 346.835938 C 129.726562 347.234375 129.792969 347.648438 129.777344 348.074219 C 129.761719 348.5 129.664062 348.90625 129.484375 349.292969 C 129.304688 349.679688 129.058594 350.019531 128.746094 350.308594 C 126.472656 352.660156 116.503906 346.386719 116.503906 346.386719 C 116.503906 346.386719 114.320312 347.410156 106.234375 345.175781 C 102.679688 344.195312 79.621094 338.671875 54.300781 332.210938 L 61.347656 304.828125 C 67.5625 306.964844 72.640625 308.679688 74.824219 309.367188 C 82.835938 311.851562 100.59375 310.519531 109.691406 314.105469 C 118.785156 317.691406 137.816406 328.390625 139.089844 333.625 C 140.363281 338.859375 135.695312 340.03125 132.800781 338.695312 Z M 132.800781 338.695312 " fill-opacity="1" fill-rule="nonzero"/><path fill="#231f20" d="M 132.800781 339.527344 C 132.585938 339.523438 132.398438 339.449219 132.238281 339.304688 C 132.09375 339.179688 117.988281 326.246094 108.886719 323.992188 C 108.679688 323.925781 108.519531 323.796875 108.414062 323.605469 C 108.308594 323.414062 108.28125 323.210938 108.332031 323 C 108.386719 322.789062 108.503906 322.621094 108.6875 322.503906 C 108.875 322.382812 109.074219 322.34375 109.289062 322.382812 C 118.800781 324.734375 132.785156 337.511719 133.367188 338.082031 C 133.496094 338.195312 133.578125 338.339844 133.617188 338.507812 C 133.65625 338.675781 133.644531 338.835938 133.582031 338.996094 C 133.519531 339.15625 133.414062 339.285156 133.273438 339.382812 C 133.128906 339.480469 132.972656 339.527344 132.800781 339.527344 Z M 129.769531 346.003906 C 129.835938 345.785156 129.8125 345.578125 129.703125 345.378906 C 129.59375 345.179688 129.425781 345.046875 129.207031 344.988281 C 128.730469 344.777344 125.722656 342.65625 122.8125 340.601562 C 117.503906 336.855469 110.894531 332.195312 107.984375 330.726562 C 107.777344 330.625 107.5625 330.609375 107.339844 330.683594 C 107.117188 330.757812 106.953125 330.898438 106.851562 331.105469 C 106.746094 331.316406 106.730469 331.53125 106.804688 331.75 C 106.878906 331.972656 107.019531 332.136719 107.226562 332.238281 C 110.03125 333.648438 116.859375 338.464844 121.839844 341.992188 C 126.820312 345.519531 128.214844 346.464844 128.707031 346.601562 C 128.785156 346.609375 128.859375 346.609375 128.933594 346.601562 C 129.125 346.605469 129.296875 346.550781 129.453125 346.4375 C 129.605469 346.328125 129.710938 346.183594 129.769531 346.003906 Z M 117.203125 346.894531 C 117.335938 346.707031 117.382812 346.5 117.34375 346.277344 C 117.304688 346.050781 117.191406 345.871094 117.003906 345.738281 C 116.535156 345.410156 105.542969 337.65625 102.871094 336.371094 C 102.660156 336.273438 102.445312 336.261719 102.230469 336.339844 C 102.011719 336.417969 101.851562 336.5625 101.753906 336.769531 C 101.652344 336.976562 101.644531 337.191406 101.71875 337.410156 C 101.796875 337.625 101.941406 337.785156 102.148438 337.882812 C 104.695312 339.109375 115.929688 347.03125 116.042969 347.105469 C 116.183594 347.210938 116.34375 347.261719 116.519531 347.257812 C 116.8125 347.257812 117.039062 347.136719 117.203125 346.894531 Z M 117.203125 346.894531 " fill-opacity="1" fill-rule="nonzero"/><path fill="#421714" d="M 49.023438 294.957031 L 66.375 303.847656 C 60.03125 310.964844 56.398438 320.632812 54.96875 332.453125 C 25.734375 332.90625 12.652344 327.609375 10.125 310.390625 C 7.777344 294.375 26.363281 248.167969 42.269531 215.242188 C 43.503906 212.699219 44.867188 210.230469 46.359375 207.832031 C 47.855469 205.433594 49.472656 203.121094 51.214844 200.894531 C 52.957031 198.667969 54.808594 196.539062 56.777344 194.507812 C 58.746094 192.480469 60.816406 190.558594 62.988281 188.75 C 65.160156 186.9375 67.421875 185.25 69.773438 183.679688 C 72.128906 182.109375 74.554688 180.667969 77.0625 179.355469 C 79.566406 178.042969 82.136719 176.867188 84.765625 175.828125 C 87.398438 174.785156 90.078125 173.890625 92.804688 173.132812 L 126.835938 163.667969 C 97.339844 205.328125 71.402344 249.09375 49.023438 294.957031 Z M 49.023438 294.957031 " fill-opacity="1" fill-rule="nonzero"/><path fill="#ebb38b" d="M 177.988281 172.414062 C 177.988281 172.414062 165.71875 202.8125 134.414062 203.238281 C 103.113281 203.660156 92.804688 173.132812 92.804688 173.132812 C 135.808594 149.816406 177.988281 172.414062 177.988281 172.414062 Z M 177.988281 172.414062 " fill-opacity="1" fill-rule="nonzero"/><path fill="#231f20" d="M 177.558594 238.015625 L 173.875 238.015625 C 173.875 237.644531 173.949219 237.289062 174.09375 236.949219 L 177.367188 236.949219 C 177.367188 236.949219 177.429688 237.328125 177.558594 238.015625 Z M 168.460938 238.015625 C 168.460938 237.648438 168.390625 237.296875 168.25 236.957031 L 165.734375 236.957031 L 165.734375 238.007812 Z M 173.910156 259.804688 L 176.671875 259.804688 C 176.945312 258.945312 177.171875 258.074219 177.367188 257.195312 C 177.121094 257.121094 176.867188 257.082031 176.609375 257.082031 C 176.246094 257.082031 175.898438 257.148438 175.5625 257.289062 C 175.226562 257.425781 174.933594 257.621094 174.675781 257.878906 C 174.417969 258.132812 174.222656 258.425781 174.082031 258.761719 C 173.941406 259.097656 173.875 259.445312 173.875 259.804688 Z M 176.640625 246.1875 C 176.425781 246.1875 176.210938 246.210938 176.003906 246.261719 C 175.792969 246.3125 175.59375 246.386719 175.402344 246.480469 C 175.210938 246.578125 175.03125 246.699219 174.867188 246.835938 C 174.703125 246.976562 174.558594 247.132812 174.433594 247.304688 C 174.304688 247.480469 174.199219 247.664062 174.117188 247.863281 C 174.035156 248.0625 173.976562 248.265625 173.941406 248.480469 C 173.90625 248.691406 173.898438 248.902344 173.914062 249.117188 C 173.933594 249.332031 173.972656 249.542969 174.039062 249.746094 C 174.105469 249.949219 174.195312 250.144531 174.304688 250.328125 C 174.417969 250.511719 174.550781 250.679688 174.699219 250.832031 C 174.851562 250.984375 175.019531 251.117188 175.203125 251.230469 C 175.386719 251.34375 175.582031 251.433594 175.785156 251.5 C 175.988281 251.566406 176.199219 251.609375 176.414062 251.625 C 176.628906 251.644531 176.839844 251.636719 177.054688 251.601562 C 177.265625 251.570312 177.472656 251.511719 177.671875 251.429688 C 177.871094 251.351562 178.058594 251.246094 178.230469 251.121094 C 178.332031 249.605469 178.359375 248.167969 178.339844 246.792969 C 177.835938 246.378906 177.253906 246.175781 176.601562 246.1875 Z M 171.191406 257.082031 C 171.550781 257.082031 171.902344 257.011719 172.234375 256.875 C 172.570312 256.738281 172.863281 256.539062 173.121094 256.285156 C 173.375 256.027344 173.574219 255.734375 173.710938 255.402344 C 173.851562 255.066406 173.917969 254.71875 173.917969 254.359375 C 173.917969 253.996094 173.851562 253.648438 173.710938 253.316406 C 173.574219 252.984375 173.375 252.6875 173.121094 252.433594 C 172.863281 252.175781 172.570312 251.980469 172.234375 251.84375 C 171.902344 251.703125 171.550781 251.636719 171.191406 251.636719 C 170.828125 251.636719 170.480469 251.703125 170.144531 251.84375 C 169.8125 251.980469 169.515625 252.175781 169.261719 252.433594 C 169.003906 252.6875 168.808594 252.984375 168.667969 253.316406 C 168.53125 253.648438 168.460938 253.996094 168.460938 254.359375 C 168.460938 254.714844 168.53125 255.0625 168.664062 255.390625 C 168.800781 255.722656 168.996094 256.015625 169.246094 256.269531 C 169.5 256.527344 169.789062 256.722656 170.121094 256.863281 C 170.449219 257.003906 170.792969 257.078125 171.152344 257.082031 Z M 171.191406 246.1875 C 171.550781 246.1875 171.902344 246.117188 172.234375 245.980469 C 172.570312 245.84375 172.863281 245.644531 173.121094 245.390625 C 173.375 245.132812 173.574219 244.839844 173.710938 244.507812 C 173.851562 244.171875 173.917969 243.824219 173.917969 243.464844 C 173.917969 243.101562 173.851562 242.753906 173.710938 242.421875 C 173.574219 242.089844 173.375 241.792969 173.121094 241.539062 C 172.863281 241.28125 172.570312 241.085938 172.234375 240.949219 C 171.902344 240.808594 171.550781 240.742188 171.191406 240.742188 C 170.828125 240.742188 170.480469 240.808594 170.144531 240.949219 C 169.8125 241.085938 169.515625 241.28125 169.261719 241.539062 C 169.003906 241.792969 168.808594 242.089844 168.667969 242.421875 C 168.53125 242.753906 168.460938 243.101562 168.460938 243.464844 C 168.460938 243.820312 168.53125 244.167969 168.664062 244.496094 C 168.800781 244.828125 168.996094 245.121094 169.246094 245.375 C 169.5 245.632812 169.789062 245.828125 170.121094 245.96875 C 170.449219 246.109375 170.792969 246.183594 171.152344 246.1875 Z M 168.460938 259.804688 C 168.460938 259.445312 168.394531 259.097656 168.253906 258.761719 C 168.117188 258.429688 167.917969 258.136719 167.664062 257.878906 C 167.40625 257.625 167.113281 257.429688 166.777344 257.289062 C 166.441406 257.152344 166.09375 257.082031 165.734375 257.082031 L 165.734375 259.804688 Z M 168.460938 248.910156 C 168.460938 248.550781 168.394531 248.203125 168.253906 247.867188 C 168.117188 247.535156 167.917969 247.242188 167.664062 246.984375 C 167.40625 246.730469 167.113281 246.535156 166.777344 246.394531 C 166.441406 246.257812 166.09375 246.1875 165.734375 246.1875 L 165.734375 251.636719 C 166.089844 251.628906 166.433594 251.558594 166.761719 251.417969 C 167.089844 251.277344 167.382812 251.082031 167.632812 250.828125 C 167.882812 250.574219 168.078125 250.285156 168.214844 249.957031 C 168.351562 249.625 168.421875 249.28125 168.425781 248.925781 Z M 175.117188 240.269531 C 175.574219 240.582031 176.078125 240.738281 176.632812 240.742188 C 177.089844 240.738281 177.515625 240.625 177.914062 240.40625 C 177.800781 239.417969 177.679688 238.605469 177.585938 238.015625 L 173.902344 238.015625 C 173.898438 238.464844 174.003906 238.890625 174.210938 239.289062 C 174.417969 239.6875 174.707031 240.015625 175.078125 240.269531 Z M 165.734375 240.742188 C 166.09375 240.738281 166.441406 240.667969 166.777344 240.53125 C 167.109375 240.390625 167.40625 240.195312 167.660156 239.941406 C 167.917969 239.683594 168.113281 239.390625 168.253906 239.058594 C 168.390625 238.726562 168.460938 238.378906 168.460938 238.015625 L 165.734375 238.015625 Z M 171.191406 262.523438 C 170.828125 262.523438 170.480469 262.589844 170.144531 262.730469 C 169.8125 262.867188 169.515625 263.0625 169.261719 263.320312 C 169.003906 263.574219 168.808594 263.871094 168.667969 264.203125 C 168.53125 264.535156 168.460938 264.882812 168.460938 265.246094 C 168.460938 265.605469 168.53125 265.953125 168.667969 266.289062 C 168.808594 266.621094 169.003906 266.917969 169.261719 267.171875 C 169.515625 267.425781 169.8125 267.625 170.144531 267.761719 C 170.480469 267.898438 170.828125 267.96875 171.191406 267.96875 C 171.542969 267.96875 171.878906 267.90625 172.207031 267.773438 C 172.816406 267.132812 173.367188 266.445312 173.867188 265.714844 C 173.898438 265.558594 173.914062 265.402344 173.910156 265.246094 C 173.910156 264.882812 173.835938 264.535156 173.695312 264.203125 C 173.554688 263.871094 173.351562 263.578125 173.09375 263.324219 C 172.835938 263.070312 172.539062 262.875 172.199219 262.742188 C 171.863281 262.605469 171.515625 262.539062 171.152344 262.542969 Z M 165.734375 267.96875 L 165.734375 271.851562 C 166.675781 271.539062 167.585938 271.140625 168.453125 270.664062 C 168.453125 270.300781 168.378906 269.953125 168.238281 269.621094 C 168.09375 269.289062 167.894531 268.996094 167.636719 268.742188 C 167.378906 268.492188 167.078125 268.296875 166.742188 268.164062 C 166.40625 268.027344 166.058594 267.964844 165.695312 267.96875 Z M 175.730469 262.355469 C 176.097656 261.523438 176.414062 260.671875 176.6875 259.804688 L 173.910156 259.804688 C 173.910156 260.375 174.074219 260.894531 174.402344 261.359375 C 174.726562 261.828125 175.15625 262.160156 175.691406 262.355469 Z M 165.734375 262.53125 C 166.09375 262.53125 166.441406 262.460938 166.777344 262.320312 C 167.113281 262.183594 167.40625 261.988281 167.664062 261.730469 C 167.917969 261.476562 168.117188 261.183594 168.253906 260.847656 C 168.394531 260.515625 168.460938 260.167969 168.460938 259.804688 L 165.734375 259.804688 Z M 165.734375 236.964844 L 163.210938 236.964844 C 163.074219 237.300781 163.003906 237.648438 163.003906 238.007812 L 165.734375 238.007812 Z M 157.34375 236.964844 L 152.289062 236.964844 C 152.152344 237.292969 152.089844 237.632812 152.089844 237.988281 L 157.546875 237.988281 C 157.53125 237.636719 157.449219 237.300781 157.304688 236.980469 Z M 146.632812 238 C 146.628906 237.652344 146.566406 237.3125 146.4375 236.988281 L 143.90625 236.988281 L 143.90625 237.992188 Z M 165.734375 257.066406 C 165.371094 257.066406 165.023438 257.136719 164.6875 257.273438 C 164.355469 257.414062 164.058594 257.609375 163.804688 257.863281 C 163.546875 258.121094 163.351562 258.414062 163.210938 258.75 C 163.074219 259.082031 163.003906 259.429688 163.003906 259.789062 L 165.734375 259.789062 Z M 154.8125 257.066406 C 154.449219 257.066406 154.101562 257.136719 153.769531 257.277344 C 153.4375 257.414062 153.140625 257.613281 152.886719 257.867188 C 152.632812 258.121094 152.433594 258.417969 152.296875 258.75 C 152.160156 259.082031 152.089844 259.429688 152.089844 259.789062 L 157.546875 259.789062 C 157.542969 259.425781 157.472656 259.078125 157.328125 258.742188 C 157.1875 258.410156 156.984375 258.113281 156.726562 257.859375 C 156.464844 257.605469 156.164062 257.410156 155.828125 257.277344 C 155.488281 257.140625 155.136719 257.078125 154.773438 257.082031 Z M 165.734375 251.621094 L 165.734375 246.171875 C 165.371094 246.171875 165.023438 246.242188 164.6875 246.378906 C 164.355469 246.519531 164.058594 246.714844 163.804688 246.96875 C 163.546875 247.226562 163.351562 247.519531 163.210938 247.855469 C 163.074219 248.1875 163.003906 248.535156 163.003906 248.894531 C 163.003906 249.257812 163.074219 249.605469 163.210938 249.9375 C 163.351562 250.273438 163.546875 250.566406 163.804688 250.820312 C 164.058594 251.078125 164.355469 251.273438 164.6875 251.414062 C 165.023438 251.550781 165.371094 251.621094 165.734375 251.621094 Z M 154.8125 246.171875 C 154.449219 246.171875 154.101562 246.242188 153.769531 246.382812 C 153.433594 246.523438 153.140625 246.71875 152.886719 246.976562 C 152.628906 247.230469 152.433594 247.523438 152.296875 247.859375 C 152.15625 248.191406 152.089844 248.539062 152.089844 248.902344 C 152.089844 249.261719 152.160156 249.609375 152.300781 249.941406 C 152.4375 250.277344 152.636719 250.570312 152.890625 250.824219 C 153.148438 251.078125 153.445312 251.277344 153.777344 251.414062 C 154.113281 251.550781 154.460938 251.621094 154.820312 251.621094 C 155.183594 251.621094 155.53125 251.550781 155.863281 251.410156 C 156.199219 251.273438 156.492188 251.078125 156.75 250.820312 C 157.003906 250.566406 157.203125 250.269531 157.339844 249.9375 C 157.476562 249.605469 157.546875 249.257812 157.546875 248.894531 C 157.546875 248.53125 157.472656 248.183594 157.332031 247.847656 C 157.1875 247.511719 156.988281 247.21875 156.726562 246.964844 C 156.464844 246.710938 156.167969 246.515625 155.828125 246.378906 C 155.488281 246.246094 155.136719 246.179688 154.773438 246.1875 Z M 149.363281 257.066406 C 149.722656 257.066406 150.070312 257 150.40625 256.859375 C 150.738281 256.722656 151.035156 256.523438 151.292969 256.269531 C 151.546875 256.015625 151.742188 255.71875 151.882812 255.386719 C 152.019531 255.050781 152.089844 254.703125 152.089844 254.34375 C 152.089844 253.980469 152.019531 253.636719 151.882812 253.300781 C 151.742188 252.96875 151.546875 252.671875 151.292969 252.417969 C 151.035156 252.164062 150.738281 251.964844 150.40625 251.828125 C 150.070312 251.6875 149.722656 251.621094 149.363281 251.621094 C 149 251.621094 148.652344 251.6875 148.316406 251.828125 C 147.984375 251.964844 147.6875 252.164062 147.433594 252.417969 C 147.175781 252.671875 146.980469 252.96875 146.839844 253.300781 C 146.703125 253.636719 146.632812 253.980469 146.632812 254.34375 C 146.632812 254.703125 146.699219 255.046875 146.835938 255.378906 C 146.96875 255.714844 147.164062 256.007812 147.414062 256.265625 C 147.667969 256.519531 147.957031 256.71875 148.289062 256.859375 C 148.621094 257.003906 148.964844 257.078125 149.324219 257.082031 Z M 160.277344 257.066406 C 160.636719 257.066406 160.984375 257 161.320312 256.859375 C 161.65625 256.722656 161.949219 256.523438 162.207031 256.269531 C 162.460938 256.015625 162.660156 255.71875 162.796875 255.386719 C 162.933594 255.050781 163.003906 254.703125 163.003906 254.34375 C 163.003906 253.980469 162.933594 253.636719 162.796875 253.300781 C 162.660156 252.96875 162.460938 252.671875 162.207031 252.417969 C 161.949219 252.164062 161.65625 251.964844 161.320312 251.828125 C 160.984375 251.6875 160.636719 251.621094 160.277344 251.621094 C 159.914062 251.621094 159.566406 251.6875 159.230469 251.828125 C 158.898438 251.964844 158.601562 252.164062 158.347656 252.417969 C 158.089844 252.671875 157.894531 252.96875 157.753906 253.300781 C 157.617188 253.636719 157.546875 253.980469 157.546875 254.34375 C 157.546875 254.703125 157.613281 255.050781 157.746094 255.382812 C 157.882812 255.714844 158.074219 256.007812 158.328125 256.265625 C 158.578125 256.523438 158.871094 256.722656 159.203125 256.863281 C 159.53125 257.003906 159.878906 257.078125 160.238281 257.082031 Z M 149.363281 246.171875 C 149.722656 246.171875 150.070312 246.101562 150.40625 245.964844 C 150.738281 245.828125 151.035156 245.628906 151.292969 245.375 C 151.546875 245.121094 151.742188 244.824219 151.882812 244.492188 C 152.019531 244.15625 152.089844 243.808594 152.089844 243.449219 C 152.089844 243.085938 152.019531 242.742188 151.882812 242.40625 C 151.742188 242.074219 151.546875 241.777344 151.292969 241.523438 C 151.035156 241.269531 150.738281 241.070312 150.40625 240.933594 C 150.070312 240.792969 149.722656 240.726562 149.363281 240.726562 C 149 240.726562 148.652344 240.792969 148.316406 240.933594 C 147.984375 241.070312 147.6875 241.269531 147.433594 241.523438 C 147.175781 241.777344 146.980469 242.074219 146.839844 242.40625 C 146.703125 242.742188 146.632812 243.085938 146.632812 243.449219 C 146.632812 243.808594 146.699219 244.152344 146.835938 244.484375 C 146.96875 244.820312 147.164062 245.113281 147.414062 245.371094 C 147.667969 245.625 147.957031 245.824219 148.289062 245.964844 C 148.621094 246.109375 148.964844 246.183594 149.324219 246.1875 Z M 160.277344 246.171875 C 160.636719 246.171875 160.984375 246.101562 161.320312 245.964844 C 161.65625 245.828125 161.949219 245.628906 162.207031 245.375 C 162.460938 245.121094 162.660156 244.824219 162.796875 244.492188 C 162.933594 244.15625 163.003906 243.808594 163.003906 243.449219 C 163.003906 243.085938 162.933594 242.742188 162.796875 242.40625 C 162.660156 242.074219 162.460938 241.777344 162.207031 241.523438 C 161.949219 241.269531 161.65625 241.070312 161.320312 240.933594 C 160.984375 240.792969 160.636719 240.726562 160.277344 240.726562 C 159.914062 240.726562 159.566406 240.792969 159.230469 240.933594 C 158.898438 241.070312 158.601562 241.269531 158.347656 241.523438 C 158.089844 241.777344 157.894531 242.074219 157.753906 242.40625 C 157.617188 242.742188 157.546875 243.085938 157.546875 243.449219 C 157.546875 243.808594 157.613281 244.152344 157.746094 244.488281 C 157.882812 244.820312 158.074219 245.113281 158.328125 245.371094 C 158.578125 245.628906 158.871094 245.828125 159.203125 245.96875 C 159.53125 246.109375 159.878906 246.183594 160.238281 246.1875 Z M 146.632812 259.789062 C 146.632812 259.429688 146.5625 259.082031 146.425781 258.75 C 146.285156 258.414062 146.089844 258.121094 145.832031 257.863281 C 145.578125 257.609375 145.28125 257.414062 144.949219 257.273438 C 144.613281 257.136719 144.265625 257.066406 143.90625 257.066406 L 143.90625 259.789062 Z M 143.90625 246.171875 L 143.90625 251.621094 C 144.265625 251.621094 144.613281 251.550781 144.949219 251.414062 C 145.28125 251.273438 145.578125 251.078125 145.832031 250.820312 C 146.089844 250.566406 146.285156 250.273438 146.425781 249.9375 C 146.5625 249.605469 146.632812 249.257812 146.632812 248.894531 C 146.632812 248.535156 146.5625 248.1875 146.425781 247.855469 C 146.285156 247.519531 146.089844 247.226562 145.832031 246.96875 C 145.578125 246.714844 145.28125 246.519531 144.949219 246.378906 C 144.613281 246.242188 144.265625 246.171875 143.90625 246.171875 Z M 164.203125 240.257812 C 164.660156 240.566406 165.164062 240.722656 165.71875 240.726562 L 165.71875 238 L 162.988281 238 C 162.984375 238.453125 163.085938 238.882812 163.292969 239.28125 C 163.5 239.683594 163.792969 240.015625 164.164062 240.269531 Z M 153.289062 240.257812 C 153.707031 240.535156 154.167969 240.691406 154.675781 240.714844 C 155.179688 240.742188 155.652344 240.632812 156.101562 240.398438 C 156.546875 240.160156 156.898438 239.824219 157.15625 239.390625 C 157.417969 238.960938 157.546875 238.492188 157.546875 237.988281 L 152.089844 237.988281 C 152.078125 238.441406 152.175781 238.871094 152.382812 239.273438 C 152.585938 239.679688 152.875 240.011719 153.25 240.269531 Z M 143.90625 240.726562 C 144.457031 240.722656 144.964844 240.566406 145.421875 240.257812 C 145.566406 240.160156 145.699219 240.046875 145.820312 239.921875 C 146.355469 239.394531 146.625 238.753906 146.625 238 L 143.898438 238 Z M 163.003906 270.679688 C 163.003906 271.324219 163.210938 271.898438 163.625 272.394531 C 164.339844 272.25 165.042969 272.0625 165.734375 271.835938 L 165.734375 267.953125 C 165.367188 267.949219 165.015625 268.015625 164.675781 268.152344 C 164.335938 268.289062 164.035156 268.484375 163.773438 268.742188 C 163.515625 269 163.3125 269.300781 163.171875 269.636719 C 163.035156 269.976562 162.964844 270.328125 162.96875 270.691406 Z M 154.8125 267.953125 C 154.578125 267.953125 154.347656 267.980469 154.125 268.039062 C 153.898438 268.097656 153.683594 268.183594 153.480469 268.296875 C 153.277344 268.410156 153.09375 268.546875 152.925781 268.707031 C 152.757812 268.867188 152.613281 269.046875 152.488281 269.246094 C 152.367188 269.441406 152.273438 269.652344 152.207031 269.875 C 152.136719 270.097656 152.097656 270.324219 152.089844 270.558594 C 152.082031 270.789062 152.101562 271.019531 152.152344 271.246094 C 152.203125 271.472656 152.28125 271.6875 152.386719 271.894531 C 153.757812 272.328125 155.160156 272.605469 156.59375 272.734375 C 157.027344 272.367188 157.316406 271.90625 157.460938 271.351562 C 157.601562 270.800781 157.574219 270.257812 157.375 269.722656 C 157.175781 269.1875 156.84375 268.761719 156.371094 268.4375 C 155.902344 268.113281 155.382812 267.953125 154.8125 267.953125 Z M 149.363281 262.507812 C 149 262.507812 148.652344 262.574219 148.316406 262.714844 C 147.984375 262.851562 147.6875 263.050781 147.433594 263.304688 C 147.175781 263.558594 146.980469 263.855469 146.839844 264.1875 C 146.703125 264.523438 146.632812 264.871094 146.632812 265.230469 C 146.632812 265.589844 146.703125 265.9375 146.839844 266.273438 C 146.980469 266.605469 147.175781 266.902344 147.433594 267.15625 C 147.6875 267.410156 147.984375 267.609375 148.316406 267.746094 C 148.652344 267.886719 149 267.953125 149.363281 267.953125 C 149.722656 267.953125 150.070312 267.886719 150.40625 267.746094 C 150.738281 267.609375 151.035156 267.410156 151.292969 267.15625 C 151.546875 266.902344 151.742188 266.605469 151.882812 266.273438 C 152.019531 265.9375 152.089844 265.589844 152.089844 265.230469 C 152.085938 264.871094 152.011719 264.523438 151.867188 264.191406 C 151.726562 263.859375 151.523438 263.566406 151.265625 263.316406 C 151.003906 263.0625 150.707031 262.871094 150.371094 262.738281 C 150.035156 262.605469 149.6875 262.539062 149.324219 262.542969 Z M 160.277344 262.507812 C 159.914062 262.507812 159.566406 262.574219 159.230469 262.714844 C 158.898438 262.851562 158.601562 263.050781 158.347656 263.304688 C 158.089844 263.558594 157.894531 263.855469 157.753906 264.1875 C 157.617188 264.523438 157.546875 264.871094 157.546875 265.230469 C 157.546875 265.589844 157.617188 265.9375 157.753906 266.273438 C 157.894531 266.605469 158.089844 266.902344 158.347656 267.15625 C 158.601562 267.410156 158.898438 267.609375 159.230469 267.746094 C 159.566406 267.886719 159.914062 267.953125 160.277344 267.953125 C 160.636719 267.953125 160.984375 267.886719 161.320312 267.746094 C 161.65625 267.609375 161.949219 267.410156 162.207031 267.15625 C 162.460938 266.902344 162.660156 266.605469 162.796875 266.273438 C 162.933594 265.9375 163.003906 265.589844 163.003906 265.230469 C 163 264.871094 162.925781 264.523438 162.78125 264.191406 C 162.640625 263.859375 162.4375 263.566406 162.179688 263.316406 C 161.917969 263.0625 161.621094 262.871094 161.285156 262.738281 C 160.949219 262.605469 160.601562 262.539062 160.238281 262.542969 Z M 165.734375 262.507812 L 165.734375 259.785156 L 163.003906 259.785156 C 163 260.144531 163.0625 260.492188 163.199219 260.828125 C 163.332031 261.164062 163.523438 261.460938 163.777344 261.71875 C 164.03125 261.980469 164.320312 262.179688 164.652344 262.324219 C 164.988281 262.464844 165.332031 262.539062 165.695312 262.542969 Z M 154.8125 262.507812 C 155.171875 262.507812 155.523438 262.4375 155.855469 262.300781 C 156.191406 262.160156 156.488281 261.964844 156.742188 261.710938 C 157 261.453125 157.199219 261.160156 157.335938 260.824219 C 157.476562 260.492188 157.546875 260.144531 157.546875 259.785156 L 152.089844 259.785156 C 152.085938 260.144531 152.148438 260.492188 152.28125 260.828125 C 152.417969 261.160156 152.609375 261.457031 152.859375 261.71875 C 153.113281 261.976562 153.402344 262.175781 153.734375 262.320312 C 154.066406 262.464844 154.414062 262.539062 154.773438 262.542969 Z M 143.90625 259.785156 L 143.90625 262.542969 C 144.265625 262.542969 144.613281 262.472656 144.945312 262.332031 C 145.28125 262.195312 145.574219 261.996094 145.828125 261.742188 C 146.085938 261.488281 146.28125 261.195312 146.421875 260.859375 C 146.558594 260.527344 146.632812 260.183594 146.632812 259.820312 Z M 143.90625 236.988281 L 141.371094 236.988281 C 141.238281 237.308594 141.175781 237.640625 141.175781 237.988281 L 143.90625 237.988281 Z M 143.90625 257.058594 C 143.542969 257.058594 143.195312 257.128906 142.859375 257.265625 C 142.527344 257.40625 142.230469 257.601562 141.976562 257.855469 C 141.71875 258.113281 141.523438 258.40625 141.382812 258.742188 C 141.246094 259.074219 141.175781 259.421875 141.175781 259.785156 L 143.90625 259.785156 Z M 141.175781 248.886719 C 141.175781 249.25 141.246094 249.597656 141.382812 249.929688 C 141.523438 250.265625 141.71875 250.558594 141.976562 250.816406 C 142.230469 251.070312 142.527344 251.265625 142.859375 251.40625 C 143.195312 251.542969 143.542969 251.613281 143.90625 251.613281 L 143.90625 246.164062 C 143.535156 246.160156 143.179688 246.226562 142.839844 246.363281 C 142.5 246.503906 142.199219 246.703125 141.9375 246.960938 C 141.675781 247.222656 141.476562 247.523438 141.339844 247.863281 C 141.199219 248.203125 141.132812 248.558594 141.136719 248.925781 Z M 138.902344 251.648438 C 139.105469 253.347656 139.414062 255.023438 139.828125 256.679688 C 140.328125 256.398438 140.703125 255.992188 140.945312 255.472656 C 141.1875 254.949219 141.257812 254.40625 141.15625 253.835938 C 141.050781 253.269531 140.792969 252.785156 140.378906 252.386719 C 139.964844 251.984375 139.472656 251.738281 138.902344 251.648438 Z M 141.175781 243.441406 C 141.175781 243.097656 141.113281 242.761719 140.984375 242.441406 C 140.855469 242.121094 140.671875 241.832031 140.4375 241.582031 C 140.199219 241.332031 139.921875 241.132812 139.609375 240.984375 C 139.296875 240.839844 138.96875 240.753906 138.621094 240.734375 C 138.523438 242.246094 138.453125 244.09375 138.492188 246.15625 C 138.84375 246.148438 139.183594 246.070312 139.503906 245.929688 C 139.828125 245.789062 140.113281 245.59375 140.359375 245.339844 C 140.605469 245.089844 140.796875 244.804688 140.929688 244.476562 C 141.066406 244.152344 141.132812 243.816406 141.136719 243.464844 Z M 142.382812 240.25 C 142.835938 240.5625 143.34375 240.71875 143.898438 240.71875 L 143.898438 237.992188 L 141.167969 237.992188 C 141.160156 238.449219 141.261719 238.875 141.46875 239.28125 C 141.675781 239.683594 141.96875 240.015625 142.34375 240.269531 Z M 141.175781 259.785156 C 141.175781 260.144531 141.246094 260.492188 141.382812 260.824219 C 141.523438 261.160156 141.71875 261.453125 141.976562 261.710938 C 142.230469 261.964844 142.527344 262.160156 142.859375 262.300781 C 143.195312 262.4375 143.542969 262.507812 143.90625 262.507812 L 143.90625 259.785156 Z M 141.175781 259.785156 " fill-opacity="1" fill-rule="nonzero"/><path fill="#f1f2f2" d="M 158.933594 273.839844 C 152.605469 273.839844 147.566406 271.707031 143.949219 267.5 C 140.160156 263.105469 138.015625 256.597656 137.558594 248.167969 C 137.347656 244.390625 137.492188 240.625 137.992188 236.875 L 138.121094 236.050781 L 178.164062 235.964844 L 178.324219 236.722656 C 179 240.476562 179.316406 244.257812 179.277344 248.070312 C 179.210938 256.53125 177.335938 263.058594 173.722656 267.46875 C 170.28125 271.675781 165.332031 273.816406 158.996094 273.832031 Z M 139.8125 237.992188 C 139.371094 241.777344 138.039062 257.664062 145.429688 266.238281 C 148.65625 270.019531 153.203125 271.886719 158.933594 271.886719 L 158.988281 271.886719 C 164.710938 271.886719 169.160156 269.980469 172.214844 266.25 C 179.277344 257.628906 177.164062 241.625 176.550781 237.917969 Z M 139.8125 237.992188 " fill-opacity="1" fill-rule="nonzero"/><path fill="#f1f2f2" d="M 288.847656 172.132812 C 286.578125 168.75 284.121094 165.515625 281.464844 162.425781 C 279.789062 160.664062 278.917969 160.914062 278.355469 162.964844 C 277.621094 166.796875 277.09375 170.652344 276.765625 174.539062 C 276.652344 176.386719 276.71875 176.695312 277.113281 176.773438 C 278.199219 176.761719 279.261719 176.601562 280.304688 176.296875 C 281.375 175.976562 281.660156 175.742188 281.609375 175.191406 C 281.554688 174.640625 281.304688 173.398438 281.230469 172.6875 C 281.167969 172.140625 281.078125 171.929688 281.320312 171.742188 C 281.921875 171.488281 282.535156 171.277344 283.164062 171.105469 C 283.335938 171.039062 283.550781 170.945312 283.753906 171.371094 C 284.15625 172.203125 284.792969 173.367188 284.996094 173.753906 C 285.367188 174.464844 285.753906 174.511719 286.042969 174.375 C 286.332031 174.238281 287.6875 173.683594 288.125 173.503906 C 288.566406 173.324219 289.398438 173.09375 288.847656 172.132812 Z M 282.199219 169.371094 L 280.910156 169.804688 C 280.578125 169.917969 280.53125 169.351562 280.488281 168.449219 C 280.488281 168.070312 280.3125 166.460938 280.617188 166.382812 C 281.046875 166.285156 282.054688 168.246094 282.359375 168.652344 C 282.660156 169.0625 282.503906 169.28125 282.230469 169.371094 Z M 291.925781 165.054688 L 290.460938 165.6875 C 290.75 166.445312 291.023438 167.125 291.28125 167.851562 C 291.320312 167.96875 291.335938 168.085938 291.328125 168.207031 C 291.320312 168.328125 291.285156 168.441406 291.230469 168.550781 C 291.175781 168.65625 291.097656 168.75 291.003906 168.828125 C 290.910156 168.902344 290.804688 168.957031 290.6875 168.988281 C 290.570312 169.023438 290.449219 169.03125 290.328125 169.015625 C 290.207031 168.996094 290.097656 168.957031 289.992188 168.894531 C 289.886719 168.832031 289.800781 168.75 289.730469 168.648438 C 289.660156 168.550781 289.613281 168.441406 289.589844 168.320312 C 289.355469 167.664062 289.105469 167.019531 288.832031 166.378906 L 287.976562 166.753906 C 287.765625 166.867188 287.542969 166.894531 287.308594 166.832031 C 287.078125 166.769531 286.898438 166.640625 286.769531 166.4375 C 286.648438 166.226562 286.621094 166.003906 286.683594 165.769531 C 286.742188 165.535156 286.878906 165.359375 287.089844 165.234375 L 288.179688 164.765625 C 287.976562 164.273438 287.769531 163.78125 287.558594 163.296875 C 287.441406 163.085938 287.414062 162.867188 287.476562 162.632812 C 287.539062 162.398438 287.671875 162.21875 287.875 162.09375 C 288.085938 161.972656 288.308594 161.945312 288.542969 162.007812 C 288.773438 162.070312 288.953125 162.203125 289.074219 162.414062 C 289.324219 162.957031 289.550781 163.515625 289.777344 164.070312 L 291.015625 163.53125 C 291.226562 163.417969 291.449219 163.390625 291.679688 163.453125 C 291.914062 163.515625 292.09375 163.644531 292.21875 163.851562 C 292.34375 164.054688 292.382812 164.273438 292.332031 164.503906 C 292.28125 164.738281 292.152344 164.921875 291.953125 165.054688 Z M 291.925781 165.054688 " fill-opacity="1" fill-rule="nonzero"/></svg>