<svg xmlns="http://www.w3.org/2000/svg" xmlns:xlink="http://www.w3.org/1999/xlink" width="500" zoomAndPan="magnify" viewBox="0 0 375 374.999991" height="500" preserveAspectRatio="xMidYMid meet" version="1.0"><defs><filter x="0%" y="0%" width="100%" height="100%" id="091f78bfa2"><feColorMatrix values="0 0 0 0 1 0 0 0 0 1 0 0 0 0 1 0 0 0 1 0" color-interpolation-filters="sRGB"/></filter><g/><clipPath id="07b7c9b0da"><path d="M 9.367188 10.417969 L 365.617188 10.417969 L 365.617188 364.417969 L 9.367188 364.417969 Z M 9.367188 10.417969 " clip-rule="nonzero"/></clipPath><clipPath id="8dcce97131"><path d="M 23.476562 24.441406 L 351.226562 24.441406 L 351.226562 350.691406 L 23.476562 350.691406 Z M 23.476562 24.441406 " clip-rule="nonzero"/></clipPath><mask id="a245c15012"><g filter="url(#091f78bfa2)"><rect x="-37.5" width="450" fill="#000000" y="-37.499999" height="449.999989" fill-opacity="0.2275"/></g></mask><clipPath id="3bbb0f02cf"><path d="M 0.605469 0.890625 L 195.605469 0.890625 L 195.605469 304.640625 L 0.605469 304.640625 Z M 0.605469 0.890625 " clip-rule="nonzero"/></clipPath><clipPath id="e1508a75ba"><rect x="0" width="218" y="0" height="306"/></clipPath></defs><g clip-path="url(#07b7c9b0da)"><path fill="#ffffff" d="M 340.527344 364.417969 L 34.460938 364.417969 C 20.632812 364.417969 9.371094 353.15625 9.371094 339.335938 L 9.371094 35.496094 C 9.371094 21.675781 20.632812 10.417969 34.460938 10.417969 L 340.527344 10.417969 C 354.351562 10.417969 365.617188 21.675781 365.617188 35.496094 L 365.617188 339.335938 C 365.617188 353.15625 354.351562 364.417969 340.527344 364.417969 " fill-opacity="1" fill-rule="nonzero"/></g><g clip-path="url(#8dcce97131)"><path fill="#f7d0a0" d="M 328.144531 350.691406 L 46.5625 350.691406 C 33.84375 350.691406 23.480469 340.316406 23.480469 327.578125 L 23.480469 47.554688 C 23.480469 34.820312 33.84375 24.441406 46.5625 24.441406 L 328.144531 24.441406 C 340.863281 24.441406 351.226562 34.820312 351.226562 47.554688 L 351.226562 327.578125 C 351.226562 340.316406 340.863281 350.691406 328.144531 350.691406 " fill-opacity="1" fill-rule="nonzero"/></g><g mask="url(#a245c15012)"><g transform="matrix(1, 0, 0, 1, 157, 45)"><g clip-path="url(#e1508a75ba)"><g clip-path="url(#3bbb0f02cf)"><path fill="#ffffff" d="M 274.320312 112.003906 L 274.320312 138.148438 C 274.320312 150.160156 264.574219 159.933594 252.59375 159.933594 C 240.617188 159.933594 230.871094 150.15625 230.871094 138.148438 L 230.871094 119.09375 C 230.855469 118.882812 230.746094 118.699219 230.746094 118.484375 C 230.746094 65.65625 188.839844 22.675781 137.328125 22.675781 C 87.007812 22.675781 45.960938 63.722656 44.089844 114.875 L 44.089844 142.507812 C 44.089844 156.921875 55.785156 168.648438 70.160156 168.648438 C 74.960938 168.648438 78.851562 172.550781 78.851562 177.363281 C 78.851562 182.175781 74.960938 186.078125 70.160156 186.078125 C 51.855469 186.078125 36.230469 174.625 29.84375 158.519531 C 27.5 159.390625 25.003906 159.933594 22.367188 159.933594 C 10.386719 159.933594 0.640625 150.160156 0.640625 138.148438 L 0.640625 112.003906 C 0.640625 99.992188 10.386719 90.21875 22.367188 90.21875 C 23.476562 90.21875 24.542969 90.382812 25.609375 90.546875 C 37.9375 39.175781 83.28125 0.890625 137.328125 0.890625 C 191.390625 0.890625 236.742188 39.1875 249.058594 90.574219 C 250.214844 90.382812 251.382812 90.21875 252.59375 90.21875 C 264.574219 90.21875 274.320312 99.992188 274.320312 112.003906 Z M 208.96875 118.484375 C 208.96875 78.8125 176.890625 46.644531 137.328125 46.644531 C 97.765625 46.644531 65.695312 78.8125 65.695312 118.484375 C 65.695312 158.164062 97.765625 190.324219 137.328125 190.324219 C 176.890625 190.328125 208.96875 158.164062 208.96875 118.484375 Z M 208.644531 212.113281 L 183.140625 212.113281 C 177.460938 212.113281 172.140625 214.894531 168.890625 219.5625 L 151.058594 245.15625 C 144.085938 255.167969 129.273438 255.070312 122.433594 244.964844 L 105.363281 219.75 C 102.128906 214.972656 96.742188 212.109375 90.984375 212.109375 L 65.941406 212.109375 C 33.683594 212.109375 7.535156 238.332031 7.535156 270.683594 L 7.535156 296.675781 C 7.535156 301.492188 11.425781 305.390625 16.226562 305.390625 L 258.359375 305.390625 C 263.15625 305.390625 267.050781 301.488281 267.050781 296.675781 L 267.050781 270.683594 C 267.046875 238.335938 240.898438 212.113281 208.644531 212.113281 Z M 208.644531 212.113281 " fill-opacity="1" fill-rule="nonzero"/></g></g></g></g><g fill="#e19c47" fill-opacity="1"><g transform="translate(84.82193, 202.105391)"><g><path d="M 27.3125 -47.046875 L 46.3125 0 L 34.78125 0 L 31.3125 -9.40625 L 13.40625 -9.40625 L 9.921875 0 L -1.59375 0 L 17.390625 -47.046875 Z M 27.65625 -18.8125 L 22.40625 -32.5 L 22.296875 -32.5 L 17.046875 -18.8125 Z M 27.65625 -18.8125 "/></g></g></g><g fill="#e19c47" fill-opacity="1"><g transform="translate(129.51188, 202.105391)"><g><path d="M 3.421875 -47.046875 L 17.046875 -47.046875 C 23.585938 -47.046875 29.175781 -44.8125 33.8125 -40.34375 C 38.457031 -35.875 40.78125 -30.273438 40.78125 -23.546875 C 40.78125 -16.785156 38.46875 -11.171875 33.84375 -6.703125 C 29.226562 -2.234375 23.628906 0 17.046875 0 L 3.421875 0 Z M 14.140625 -9.578125 L 15.796875 -9.578125 C 19.710938 -9.578125 22.914062 -10.898438 25.40625 -13.546875 C 27.894531 -16.191406 29.160156 -19.507812 29.203125 -23.5 C 29.203125 -27.488281 27.957031 -30.8125 25.46875 -33.46875 C 22.976562 -36.132812 19.753906 -37.46875 15.796875 -37.46875 L 14.140625 -37.46875 Z M 14.140625 -9.578125 "/></g></g></g><g fill="#e19c47" fill-opacity="1"><g transform="translate(171.579717, 202.105391)"><g><path d="M 42.3125 0 L 40.09375 -27.890625 L 39.8125 -27.890625 L 30.171875 -0.28125 L 23.78125 -0.28125 L 14.140625 -27.890625 L 13.859375 -27.890625 L 11.640625 0 L 0.90625 0 L 5.125 -47.046875 L 16.53125 -47.046875 L 26.96875 -19.90625 L 37.40625 -47.046875 L 48.8125 -47.046875 L 53.03125 0 Z M 42.3125 0 "/></g></g></g><g fill="#e19c47" fill-opacity="1"><g transform="translate(225.50409, 202.105391)"><g><path d="M 14.140625 -47.046875 L 14.140625 0 L 3.421875 0 L 3.421875 -47.046875 Z M 14.140625 -47.046875 "/></g></g></g><g fill="#e19c47" fill-opacity="1"><g transform="translate(243.060851, 202.105391)"><g><path d="M 14.140625 -29.203125 L 14.140625 0 L 3.421875 0 L 3.421875 -47.046875 L 14.140625 -47.046875 L 32.84375 -17.84375 L 32.96875 -17.84375 L 32.96875 -47.046875 L 43.6875 -47.046875 L 43.6875 0 L 32.96875 0 L 14.25 -29.203125 Z M 14.140625 -29.203125 "/></g></g></g></svg>